<?xml version="1.0" standalone="no"?>
<!DOCTYPE svg PUBLIC "-//W3C//DTD SVG 20010904//EN"
 "http://www.w3.org/TR/2001/REC-SVG-20010904/DTD/svg10.dtd">
<svg version="1.0" xmlns="http://www.w3.org/2000/svg"
 width="1024.000000pt" height="1024.000000pt" viewBox="0 0 1024.000000 1024.000000"
 preserveAspectRatio="xMidYMid meet">

<g transform="translate(0.000000,1024.000000) scale(0.100000,-0.100000)"
fill="#000000" stroke="none">
<path d="M5130 10064 c0 -69 -28 -248 -46 -291 -42 -101 -45 -104 -76 -98 -17
4 -35 2 -43 -5 -8 -6 -23 -9 -34 -5 -16 5 -21 18 -27 66 -7 63 -24 81 -24 25
0 -18 -3 -46 -6 -62 -5 -28 -8 -29 -65 -30 l-60 0 -34 70 c-24 50 -39 101 -50
171 -9 55 -18 115 -21 133 -11 69 -19 26 -17 -93 1 -129 -11 -212 -43 -279
-16 -32 -20 -35 -50 -30 -18 3 -35 0 -39 -6 -13 -21 -22 -9 -40 53 -25 84 -35
92 -35 26 0 -30 -6 -67 -12 -81 -12 -24 -16 -26 -64 -21 -47 5 -51 4 -57 -18
-3 -13 -4 -25 -2 -28 3 -2 76 5 162 17 87 12 188 24 226 28 47 4 70 11 77 23
7 11 9 12 10 2 0 -10 18 -12 88 -8 112 7 465 8 562 2 109 -7 419 -41 470 -52
14 -2 48 -9 75 -13 237 -40 619 -150 865 -251 30 -12 78 -31 105 -42 165 -64
561 -281 736 -403 108 -74 129 -84 129 -63 0 8 5 7 16 -2 15 -12 15 -14 0 -19
-12 -4 17 -31 101 -97 109 -84 119 -90 136 -76 24 22 22 27 -18 43 -19 8 -35
17 -35 21 0 4 -2 14 -5 22 -3 7 10 38 30 67 19 29 34 54 32 56 -2 2 -25 -18
-51 -46 -26 -27 -51 -50 -55 -50 -15 0 -99 80 -104 99 -7 28 23 105 75 196 26
44 45 81 43 83 -2 2 -55 -49 -118 -114 l-114 -117 -22 22 c-17 17 -26 19 -41
11 -25 -13 -27 -7 -26 70 1 47 7 77 24 108 30 58 10 44 -32 -21 -34 -54 -62
-87 -74 -87 -4 0 -29 21 -56 46 -36 34 -51 42 -61 34 -11 -9 -12 1 -8 52 6 84
25 144 84 261 27 53 45 97 41 97 -4 0 -41 -49 -82 -108 -41 -59 -101 -133
-134 -166 l-59 -58 -21 25 c-28 33 -53 40 -65 19 -8 -14 -11 -13 -22 12 -11
23 -10 38 2 87 18 67 12 75 -15 24 -11 -19 -29 -41 -41 -49 -20 -13 -25 -13
-45 6 -21 20 -22 27 -18 112 4 61 14 114 31 161 43 121 41 113 23 90 -9 -10
-32 -50 -52 -88 -51 -99 -63 -117 -116 -176 -39 -43 -48 -49 -48 -32 0 16 -6
21 -28 21 -55 0 -73 46 -53 133 12 51 -1 46 -27 -10 -12 -27 -29 -56 -36 -66
-13 -17 -16 -17 -45 -3 -34 18 -55 21 -46 6 3 -5 1 -10 -5 -10 -7 0 -10 7 -6
15 3 8 1 26 -4 40 -17 46 -20 169 -5 226 19 72 20 105 1 64 -8 -16 -28 -59
-45 -95 -34 -74 -129 -180 -142 -158 -4 7 -32 15 -61 18 l-53 5 1 63 c0 34 -2
62 -6 62 -4 0 -15 -20 -24 -45 -20 -50 -31 -61 -49 -46 -7 5 -30 8 -50 6 -24
-2 -37 1 -36 8 1 7 -4 26 -11 42 -21 48 -24 190 -7 275 9 41 14 76 12 79 -7 6
-6 8 -48 -117 -45 -138 -125 -267 -146 -234 -3 5 -26 9 -49 8 -38 -2 -45 1
-53 21 -5 14 -9 44 -9 69 0 24 -4 44 -10 44 -5 0 -10 -10 -10 -22 0 -13 -9
-42 -20 -66 -18 -40 -21 -42 -36 -27 -10 10 -29 15 -48 13 -29 -3 -32 0 -50
47 -16 42 -19 76 -19 222 1 99 -3 171 -8 167 -5 -3 -9 -17 -9 -32 0 -38 -58
-248 -80 -293 -28 -53 -76 -104 -85 -89 -5 7 -19 10 -40 6 -54 -11 -65 -1 -65
60 0 62 -15 72 -24 17 -13 -71 -13 -71 -64 -70 -26 1 -55 9 -65 17 -34 28 -68
164 -74 298 -3 67 -10 122 -15 122 -4 0 -8 -21 -8 -46z"/>
<path d="M4118 9875 c12 -130 7 -226 -12 -281 -17 -46 -21 -50 -50 -48 -17 1
-36 -2 -43 -8 -18 -15 -30 -3 -48 52 -9 28 -20 50 -24 50 -4 0 -7 -29 -7 -64
1 -35 -2 -67 -5 -70 -3 -4 -29 -7 -58 -7 -31 -1 -58 -8 -67 -16 -8 -8 -14 -11
-14 -6 0 4 -20 32 -44 61 -39 49 -116 214 -116 251 0 8 -3 12 -6 9 -3 -3 2
-53 12 -111 15 -94 15 -113 2 -193 l-14 -89 -32 1 c-18 1 -32 -3 -32 -9 0 -6
-3 -7 -7 -4 -3 4 -12 2 -19 -4 -10 -8 -20 4 -44 51 -17 34 -33 60 -35 58 -2
-2 0 -21 5 -43 18 -78 10 -103 -36 -111 -46 -7 -56 -13 -48 -26 4 -7 -19 12
-50 42 -43 42 -71 83 -117 173 -33 65 -62 117 -65 115 -2 -3 9 -44 26 -93 30
-88 53 -224 47 -280 -2 -22 -8 -30 -23 -31 -12 -1 -26 -4 -33 -8 -7 -4 -18 5
-29 24 -9 17 -23 39 -30 48 -14 17 -12 -2 5 -90 4 -23 2 -28 -13 -28 -33 0
-95 -21 -89 -29 3 -5 -2 -11 -9 -14 -24 -9 -125 98 -205 216 -40 60 -75 106
-78 104 -2 -3 12 -37 31 -76 60 -118 87 -213 84 -289 -3 -62 -5 -67 -24 -64
-12 2 -24 -4 -27 -13 -4 -8 -13 -15 -22 -15 -8 0 -15 -4 -15 -10 0 -29 -33 -2
-70 58 -50 78 -49 77 -55 70 -3 -2 4 -22 15 -43 20 -40 27 -119 12 -143 -15
-24 -76 -26 -118 -4 -40 20 -155 117 -186 156 -9 11 -19 18 -23 14 -3 -3 15
-38 40 -78 25 -40 57 -96 69 -124 13 -30 37 -63 54 -75 l31 -22 24 21 c91 79
544 328 757 415 302 124 499 189 767 255 167 42 212 56 216 71 3 10 -10 38
-30 66 -51 71 -63 97 -100 213 l-33 105 8 -80z"/>
<path d="M4880 9577 c-3 -3 -49 -8 -103 -11 -592 -39 -1338 -266 -1882 -573
-593 -336 -1131 -849 -1528 -1460 -286 -440 -455 -830 -573 -1323 -84 -352
-114 -593 -121 -990 -9 -519 36 -884 167 -1340 200 -694 660 -1426 1214 -1932
65 -59 124 -108 131 -108 7 0 50 -35 96 -78 292 -272 838 -586 1319 -761 323
-116 704 -204 1075 -248 200 -23 665 -23 875 1 472 54 824 143 1279 323 572
226 1021 521 1495 983 547 533 958 1228 1140 1930 42 160 102 507 116 675 18
200 21 669 5 870 -32 411 -135 856 -286 1240 -126 321 -395 779 -638 1085
-109 138 -271 321 -379 427 -204 203 -544 475 -752 602 -461 283 -867 453
-1371 575 -318 77 -563 106 -954 113 -176 3 -322 3 -325 0z m445 -118 c39 -13
99 -43 135 -67 63 -43 69 -45 200 -62 338 -46 733 -146 1022 -261 125 -50 427
-201 565 -283 383 -227 798 -568 1050 -860 226 -262 574 -767 677 -981 95
-195 177 -438 246 -720 35 -144 49 -221 93 -505 13 -78 18 -91 66 -153 62 -82
82 -121 109 -207 33 -107 37 -193 14 -285 -27 -109 -60 -180 -115 -247 -45
-55 -47 -61 -57 -150 -67 -589 -162 -927 -381 -1359 -84 -166 -204 -368 -280
-469 -30 -41 -73 -100 -94 -130 -192 -271 -554 -632 -895 -892 -161 -122 -252
-183 -392 -261 l-113 -63 -2 -58 c-1 -51 -5 -63 -35 -93 -45 -47 -136 -100
-313 -182 -390 -180 -807 -295 -1275 -352 -119 -15 -616 -18 -780 -6 -327 25
-709 108 -1087 238 -306 105 -310 110 -223 243 131 201 206 422 236 701 7 70
6 311 -2 410 -3 39 -5 80 -5 93 1 15 -30 62 -86 132 -48 60 -89 108 -90 106
-2 -2 1 -34 7 -72 17 -111 24 -532 11 -684 -18 -217 -59 -384 -128 -525 -52
-106 -47 -104 -144 -54 -768 396 -1403 995 -1820 1716 -74 127 -220 423 -262
528 -129 329 -224 740 -240 1045 -3 46 -12 81 -31 119 -76 149 -74 383 4 561
17 38 28 75 24 83 -7 19 21 268 47 422 48 281 100 493 189 773 22 68 47 153
55 189 35 152 102 277 210 392 40 43 111 136 159 207 270 406 546 711 891 986
309 246 526 381 878 546 277 130 541 218 877 291 224 50 241 52 373 66 67 6
84 12 130 45 128 91 231 122 397 116 87 -2 132 -9 185 -27z"/>
<path d="M5030 9383 c-48 -8 -155 -45 -190 -66 -129 -77 -227 -215 -245 -344
-3 -21 -8 -54 -10 -73 -9 -67 21 -218 59 -295 85 -172 268 -286 459 -288 294
-2 520 200 543 488 18 225 -93 433 -280 525 -105 52 -227 71 -336 53z m420
-243 c19 -19 20 -33 20 -250 0 -173 -3 -239 -14 -264 -16 -38 -83 -97 -102
-89 -21 8 -17 22 16 60 l30 34 0 239 0 240 -290 0 -290 0 0 -239 0 -239 30
-30 c34 -34 39 -62 12 -62 -19 0 -72 51 -91 87 -7 14 -11 103 -11 257 0 223 1
237 20 256 19 19 33 20 335 20 302 0 316 -1 335 -20z m-290 -293 c31 -16 70
-73 70 -104 0 -64 -56 -113 -131 -113 -57 0 -109 50 -109 107 0 93 89 151 170
110z"/>
<path d="M5072 8778 c-18 -18 -15 -52 6 -71 25 -22 45 -21 67 3 27 30 10 74
-30 78 -17 2 -36 -3 -43 -10z"/>
<path d="M5644 9244 c3 -9 6 -18 6 -20 0 -2 5 -4 10 -4 6 0 10 9 10 20 0 12
-7 20 -16 20 -11 0 -14 -5 -10 -16z"/>
<path d="M4565 9241 c-10 -17 12 -21 25 -6 10 12 10 15 -3 15 -9 0 -18 -4 -22
-9z"/>
<path d="M5740 9184 c-23 -74 -26 -128 -8 -122 12 4 41 80 52 139 5 28 3 38
-8 42 -12 5 -20 -10 -36 -59z"/>
<path d="M4435 9193 c3 -21 14 -62 24 -92 17 -49 20 -52 30 -33 8 16 8 39 -1
91 -11 65 -14 71 -36 71 -22 0 -23 -3 -17 -37z"/>
<path d="M5902 9128 c-12 -46 -27 -108 -34 -138 -7 -30 -23 -70 -36 -88 l-25
-33 39 -40 38 -39 40 40 40 40 -27 28 -27 28 34 134 c19 74 33 137 30 142 -3
4 -15 8 -27 8 -19 0 -25 -11 -45 -82z"/>
<path d="M4255 9191 c-6 -11 26 -73 41 -78 7 -2 7 11 0 42 -10 42 -27 57 -41
36z"/>
<path d="M6072 9088 c-21 -82 -21 -101 -1 -81 16 16 60 143 54 154 -16 25 -33
2 -53 -73z"/>
<path d="M4095 9149 c-6 -15 33 -115 41 -106 8 8 -8 86 -22 104 -11 16 -13 16
-19 2z"/>
<path d="M6199 9095 c-31 -71 -19 -90 19 -31 35 55 40 76 16 76 -8 0 -24 -20
-35 -45z"/>
<path d="M3972 9109 c2 -6 8 -10 13 -10 5 0 11 4 13 10 2 6 -4 11 -13 11 -9 0
-15 -5 -13 -11z"/>
<path d="M3845 9079 c-4 -6 -5 -13 -2 -16 7 -7 27 6 27 18 0 12 -17 12 -25 -2z"/>
<path d="M4250 9044 c0 -23 30 -116 59 -185 l32 -76 -30 -59 c-29 -58 -77
-211 -68 -220 5 -5 207 283 207 296 0 10 -164 223 -186 240 -7 7 -14 9 -14 4z"/>
<path d="M3720 9029 c0 -5 5 -7 10 -4 6 3 10 8 10 11 0 2 -4 4 -10 4 -5 0 -10
-5 -10 -11z"/>
<path d="M6347 8980 c-124 -43 -221 -129 -276 -245 -43 -92 -54 -160 -42 -251
37 -263 287 -451 540 -405 188 35 341 192 374 386 36 213 -108 444 -321 514
-82 28 -196 28 -275 1z m157 -96 c9 -3 16 -15 16 -25 0 -12 10 -21 28 -25 59
-15 162 -77 162 -100 0 -6 -6 -17 -14 -23 -10 -9 -26 -3 -70 23 -93 56 -156
58 -248 8 -126 -67 -157 -249 -61 -363 72 -85 193 -108 291 -55 28 16 52 33
52 38 0 13 20 9 37 -8 14 -14 13 -18 -8 -41 -28 -30 -110 -73 -139 -73 -11 0
-20 -4 -20 -9 0 -15 -44 -21 -65 -8 -11 7 -42 21 -69 32 -89 33 -170 128 -191
223 -5 25 -12 32 -30 32 -50 0 -85 12 -85 31 0 22 29 32 74 24 34 -7 35 -6 42
32 19 106 118 212 217 232 21 5 33 14 36 26 2 11 8 23 15 27 14 9 11 9 30 2z
m370 -330 c21 -21 20 -41 -3 -54 -41 -21 -82 30 -45 57 23 17 29 16 48 -3z"/>
<path d="M3825 8934 c-66 -19 -176 -52 -245 -74 -69 -21 -144 -45 -167 -52
l-43 -13 -2 -145 c-1 -80 -1 -154 0 -165 1 -11 -1 -50 -4 -86 l-6 -67 -56 5
c-77 7 -144 -19 -186 -70 -26 -33 -31 -47 -31 -92 0 -61 21 -98 76 -130 78
-45 209 -11 258 69 20 32 21 47 21 309 l0 275 73 22 c68 20 246 72 312 90 17
5 40 11 53 15 l22 6 0 -216 c0 -203 -1 -217 -17 -209 -33 14 -104 16 -136 3
-83 -32 -127 -88 -127 -161 0 -153 226 -203 326 -72 l29 37 3 379 c3 358 2
378 -15 377 -10 0 -72 -16 -138 -35z m-93 -654 c-30 -56 -42 -62 -42 -23 0 28
35 73 57 73 9 0 4 -16 -15 -50z m-539 -80 c-25 -48 -43 -57 -43 -21 0 23 37
71 55 71 10 0 7 -13 -12 -50z"/>
<path d="M7012 8809 c2 -6 8 -10 13 -10 5 0 11 4 13 10 2 6 -4 11 -13 11 -9 0
-15 -5 -13 -11z"/>
<path d="M3196 8801 c-9 -14 15 -61 31 -61 7 0 13 11 13 25 0 14 1 28 3 33 3
11 -40 15 -47 3z"/>
<path d="M4101 8774 c-27 -19 -27 -46 -1 -69 30 -27 74 -10 78 29 2 16 0 32
-5 37 -17 17 -50 18 -72 3z"/>
<path d="M7082 8701 c-35 -63 -41 -101 -17 -101 8 0 15 4 15 9 0 5 16 37 35
71 19 34 32 66 29 71 -12 21 -31 6 -62 -50z"/>
<path d="M3115 8740 c3 -5 8 -10 11 -10 2 0 4 5 4 10 0 6 -5 10 -11 10 -5 0
-7 -4 -4 -10z"/>
<path d="M5885 8713 c-17 -3 -26 -29 -62 -176 -93 -379 -97 -398 -82 -408 28
-18 27 -21 75 151 44 160 103 425 96 431 -4 3 -16 3 -27 2z"/>
<path d="M7192 8623 c-30 -46 -47 -82 -42 -87 12 -12 32 5 85 75 41 54 43 58
26 73 -17 15 -21 12 -69 -61z"/>
<path d="M3029 8641 c-60 -60 -26 -153 55 -153 48 0 82 23 96 66 30 92 -81
156 -151 87z m41 -21 c0 -5 -4 -10 -10 -10 -5 0 -10 5 -10 10 0 6 5 10 10 10
6 0 10 -4 10 -10z"/>
<path d="M3571 8611 c-33 -33 -27 -76 13 -98 28 -15 55 -4 72 29 14 27 14 32
-1 54 -8 13 -19 24 -24 24 -5 0 -16 3 -24 6 -9 3 -25 -4 -36 -15z"/>
<path d="M7321 8580 c-32 -57 -21 -71 20 -26 37 41 42 59 19 64 -10 2 -25 -13
-39 -38z"/>
<path d="M2848 8585 c-4 -4 0 -18 9 -32 17 -25 53 -50 53 -35 0 14 -55 74 -62
67z"/>
<path d="M5656 8525 c-8 -19 -28 -54 -44 -77 -35 -51 -73 -124 -67 -129 2 -2
-3 -31 -11 -64 -20 -85 -18 -95 11 -95 20 0 26 7 35 43 10 40 43 159 81 295
20 69 17 81 -5 27z"/>
<path d="M7436 8520 c-29 -44 -32 -60 -13 -60 16 0 67 51 67 67 0 6 -6 16 -14
22 -10 9 -19 3 -40 -29z"/>
<path d="M4402 8517 l-21 -22 25 -90 c52 -195 81 -280 98 -283 9 -2 18 2 21
10 4 13 -86 392 -96 403 -3 3 -15 -5 -27 -18z"/>
<path d="M2720 8501 c0 -5 5 -13 10 -16 6 -3 10 -2 10 4 0 5 -4 13 -10 16 -5
3 -10 2 -10 -4z"/>
<path d="M7030 8489 c0 -11 5 -17 10 -14 6 3 10 13 10 21 0 8 -4 14 -10 14 -5
0 -10 -9 -10 -21z"/>
<path d="M4651 8320 c21 -85 39 -156 39 -157 0 -2 11 -3 25 -3 30 0 30 -5 6
102 -14 64 -27 98 -52 131 -19 25 -39 53 -45 63 -7 11 6 -51 27 -136z"/>
<path d="M7537 8414 c-26 -31 -47 -60 -47 -65 0 -21 29 -5 75 41 44 45 48 52
34 66 -14 14 -20 10 -62 -42z"/>
<path d="M2752 8418 c-28 -31 -28 -62 0 -88 29 -27 73 -26 92 2 32 45 13 93
-39 104 -23 4 -35 0 -53 -18z"/>
<path d="M2615 8419 c-8 -13 50 -77 61 -66 8 8 -27 69 -43 74 -6 2 -14 -1 -18
-8z"/>
<path d="M4107 8418 c-16 -12 -13 -26 47 -187 36 -95 69 -178 74 -183 6 -6 17
-6 31 1 20 11 20 11 -9 94 -69 190 -106 281 -116 284 -5 2 -18 -2 -27 -9z"/>
<path d="M7165 8401 c-22 -16 -52 -31 -65 -33 -19 -2 -24 -9 -23 -25 1 -11 -4
-27 -12 -33 -22 -18 -18 -47 11 -98 20 -34 23 -46 14 -52 -7 -5 -10 -16 -6
-25 6 -16 18 -17 65 -4 7 2 21 -9 30 -25 23 -41 45 -53 66 -36 8 7 15 20 13
29 -4 25 11 41 38 41 15 0 24 -6 24 -15 0 -24 26 -17 38 10 15 32 15 55 2 55
-5 0 -10 6 -10 13 0 7 -9 20 -20 30 -11 9 -20 22 -20 29 0 7 7 2 16 -10 30
-43 82 -17 70 35 -4 16 -10 40 -13 55 -5 26 -42 46 -63 33 -4 -3 -22 8 -38 25
-38 37 -65 37 -117 1z m69 -29 c9 -15 -6 -52 -20 -52 -14 0 -20 41 -7 53 9 9
21 9 27 -1z m-108 -59 c-10 -10 -19 5 -10 18 6 11 8 11 12 0 2 -7 1 -15 -2
-18z m229 -3 c-5 -8 -11 -8 -17 -2 -6 6 -7 16 -3 22 5 8 11 8 17 2 6 -6 7 -16
3 -22z m-221 -56 c10 -25 7 -34 -9 -34 -9 0 -15 9 -15 25 0 28 15 34 24 9z
m119 -48 c6 -16 -2 -28 -14 -20 -12 7 -11 34 0 34 5 0 11 -6 14 -14z"/>
<path d="M7677 8373 c-14 -13 -6 -23 18 -23 18 0 23 4 19 15 -6 16 -26 20 -37
8z"/>
<path d="M2506 8333 c-8 -9 54 -73 71 -73 16 0 5 24 -27 58 -22 23 -32 27 -44
15z"/>
<path d="M7786 8275 c4 -8 10 -15 15 -15 5 0 9 7 9 15 0 8 -7 15 -15 15 -9 0
-12 -6 -9 -15z"/>
<path d="M2415 8259 c-7 -10 21 -38 38 -39 11 0 8 25 -5 38 -15 15 -25 15 -33
1z"/>
<path d="M4820 8225 c0 -41 2 -45 25 -45 22 0 25 4 25 39 0 26 -5 41 -16 45
-29 11 -34 6 -34 -39z"/>
<path d="M5377 8263 c-4 -3 -7 -24 -7 -45 0 -34 3 -38 25 -38 21 0 25 5 25 29
0 16 3 36 6 45 5 12 0 16 -18 16 -14 0 -28 -3 -31 -7z"/>
<path d="M4337 8232 c-6 -8 28 -129 38 -141 2 -1 8 0 14 3 6 4 3 26 -9 61 -24
70 -36 90 -43 77z"/>
<path d="M5882 8182 c-25 -65 -28 -86 -10 -80 12 4 46 90 47 121 2 34 -14 16
-37 -41z"/>
<path d="M5015 8220 c-4 -6 -3 -14 0 -20 9 -15 35 -12 35 4 0 17 -27 29 -35
16z"/>
<path d="M5210 8220 c-12 -7 -12 -12 -3 -21 10 -10 14 -9 19 5 8 22 2 27 -16
16z"/>
<path d="M7561 8201 c-12 -17 -42 -37 -67 -47 -48 -18 -74 -55 -74 -104 0 -13
-12 -26 -34 -36 -31 -15 -34 -21 -40 -77 -11 -108 -7 -251 8 -272 7 -11 15
-53 18 -94 l4 -74 67 -63 67 -62 0 -66 0 -66 419 0 419 0 6 31 c8 43 7 222 -2
235 -4 6 -17 16 -29 22 -19 11 -21 21 -25 116 -2 86 -7 109 -23 132 -12 15
-25 28 -30 28 -6 1 -11 -54 -13 -131 l-3 -131 -42 -4 c-23 -1 -81 -2 -128 0
l-87 3 -6 37 c-3 20 -6 72 -6 115 0 62 3 77 15 77 8 0 15 5 15 10 0 6 -7 10
-15 10 -12 0 -15 20 -15 119 0 95 -3 123 -16 135 -20 20 -40 20 -48 0 -3 -9
-6 -127 -6 -263 l0 -247 -135 -92 -135 -92 0 55 0 55 -50 0 c-40 0 -55 5 -80
28 -16 15 -31 38 -32 52 l-3 25 128 3 127 3 0 -50 c0 -59 13 -70 48 -44 22 16
28 31 33 74 3 30 15 73 28 97 22 40 23 51 19 185 -5 148 -11 177 -34 177 -10
0 -14 15 -14 54 0 67 -26 102 -102 140 -69 35 -101 34 -127 -3z m121 -75 c16
-12 22 -28 19 -53 -2 -19 -191 -18 -191 0 0 15 41 37 69 37 10 0 26 9 35 19
18 19 39 19 68 -3z m56 -172 c20 -23 22 -35 22 -145 0 -114 -1 -121 -25 -144
-23 -24 -30 -25 -140 -25 -115 0 -117 0 -146 29 -29 29 -29 31 -29 144 0 97 3
118 19 138 23 28 84 38 196 33 70 -4 83 -7 103 -30z m542 -549 l0 -65 -272 0
-271 0 89 65 89 64 183 1 182 0 0 -65z"/>
<path d="M7500 7927 c-24 -12 -25 -18 -28 -106 -4 -134 2 -141 117 -141 118 0
121 4 121 138 0 62 -4 103 -11 108 -22 13 -173 15 -199 1z m122 -114 c24 -21
23 -38 -4 -57 -29 -21 -58 -4 -58 34 0 40 30 52 62 23z"/>
<path d="M2316 8181 c-3 -5 3 -11 14 -14 13 -3 20 0 20 9 0 15 -26 19 -34 5z"/>
<path d="M7903 8175 c-22 -24 -15 -36 12 -23 14 6 25 17 25 25 0 17 -22 16
-37 -2z"/>
<path d="M5987 8116 c-14 -40 -14 -46 0 -57 35 -30 80 46 47 82 -25 27 -30 24
-47 -25z"/>
<path d="M2409 8140 c-68 -12 -124 -44 -159 -93 -23 -33 -41 -46 -75 -55 -54
-14 -120 -71 -134 -115 -18 -52 -19 -346 -2 -386 12 -27 49 -56 195 -152 99
-65 182 -116 184 -114 2 1 -15 45 -37 96 l-39 94 211 5 c171 4 218 8 242 21
39 22 60 46 72 84 8 25 16 31 54 37 24 4 50 15 57 25 8 11 12 56 12 135 0 131
-4 141 -73 164 l-32 11 0 74 c-1 84 -10 107 -62 146 -36 28 -37 28 -202 30
-91 1 -187 -2 -212 -7z m370 -86 c23 -19 31 -34 31 -58 0 -50 -11 -51 -50 -7
l-35 41 -187 2 c-102 2 -184 7 -181 11 17 27 74 36 230 37 159 0 162 0 192
-26z m-466 -111 c-7 -2 -19 -2 -25 0 -7 3 -2 5 12 5 14 0 19 -2 13 -5z m449
-40 c10 -9 18 -20 18 -25 0 -4 -76 -8 -169 -8 -93 0 -176 -3 -185 -6 -9 -3
-16 -17 -16 -30 0 -35 25 -38 282 -31 134 3 230 2 234 -4 3 -5 -23 -9 -60 -9
-59 0 -66 -2 -66 -20 0 -19 -7 -20 -172 -20 -191 0 -218 -4 -218 -30 0 -39 20
-42 266 -39 176 2 239 -1 242 -9 2 -8 -16 -12 -62 -12 -52 0 -66 -3 -66 -15 0
-13 -26 -15 -174 -15 -96 0 -181 -3 -190 -6 -21 -8 -21 -50 0 -58 9 -3 92 -6
185 -6 93 0 169 -2 169 -5 0 -19 -26 -54 -44 -58 -11 -2 -148 -5 -303 -6
l-283 -2 -24 26 c-32 34 -35 58 -29 208 6 136 17 167 67 187 11 5 147 9 300 9
247 1 282 -1 298 -16z"/>
<path d="M2200 7851 c0 -10 101 -64 107 -57 9 9 -9 27 -47 46 -42 22 -60 25
-60 11z"/>
<path d="M2190 7781 c0 -13 100 -95 107 -88 6 6 -86 97 -99 97 -4 0 -8 -4 -8
-9z"/>
<path d="M2190 7697 c0 -16 32 -47 48 -47 19 0 14 14 -11 38 -27 25 -37 28
-37 9z"/>
<path d="M2180 7581 c0 -26 87 -41 148 -25 44 12 21 23 -45 21 -38 -1 -76 2
-85 7 -12 5 -18 4 -18 -3z"/>
<path d="M4895 8081 c-350 -41 -649 -131 -965 -292 -385 -196 -711 -498 -956
-886 -31 -48 -87 -151 -124 -228 -165 -339 -215 -617 -191 -1060 6 -121 14
-239 17 -262 6 -40 4 -43 -17 -43 -39 0 -124 -45 -148 -78 -43 -61 -54 -110
-54 -242 0 -169 21 -242 136 -474 l91 -181 1 -130 c1 -71 5 -143 10 -158 34
-121 164 -285 266 -337 38 -20 125 -43 210 -57 l35 -5 39 -132 c101 -343 249
-586 540 -884 403 -415 904 -649 1371 -641 57 1 123 5 146 10 24 4 80 15 125
24 126 24 253 69 418 150 578 281 1029 806 1179 1374 14 51 27 95 28 96 2 2
40 10 85 19 144 27 224 73 306 174 106 132 118 168 127 357 l6 150 86 170
c124 246 133 276 133 461 0 148 -1 151 -30 209 -35 69 -91 114 -154 122 -39 5
-42 8 -36 32 15 75 35 313 35 432 0 250 -38 500 -105 686 -51 140 -162 360
-244 483 -402 602 -962 977 -1651 1104 -47 9 -112 21 -145 27 -74 14 -474 20
-570 10z m38 -245 c37 -15 84 -61 108 -106 l17 -30 16 24 c31 47 101 79 186
84 94 5 136 -7 185 -55 46 -45 72 -102 81 -174 l6 -54 -84 -74 c-45 -41 -84
-77 -85 -80 -2 -3 35 -7 82 -8 47 -2 95 -8 107 -14 17 -9 24 -7 42 14 66 77
164 117 286 117 147 0 236 -36 324 -129 74 -80 91 -126 92 -253 0 -59 3 -110
6 -113 9 -9 53 53 77 105 25 55 27 132 5 196 -16 49 -81 154 -94 154 -4 0 -11
7 -14 16 -11 28 119 13 188 -20 48 -24 126 -94 126 -114 0 -4 -18 -8 -39 -8
-44 -2 -131 -41 -131 -59 0 -33 26 -43 121 -47 105 -5 174 -30 238 -84 37 -31
94 -114 105 -154 7 -23 5 -22 -19 8 -69 85 -192 112 -321 70 l-69 -22 64 -7
c181 -22 289 -121 340 -311 12 -43 21 -90 21 -105 l0 -28 26 27 c25 25 57 116
49 141 -17 55 -15 67 7 67 54 0 143 -66 183 -135 21 -38 50 -133 42 -141 -5
-6 -71 20 -79 31 -5 6 -8 5 -8 -3 0 -14 -21 -12 -32 3 -5 6 -12 4 -18 -5 -9
-13 -11 -13 -20 0 -5 8 -10 10 -10 4 0 -6 -6 -11 -12 -12 -20 -1 -72 -13 -76
-17 -2 -1 3 -18 11 -37 13 -31 20 -36 62 -41 124 -17 234 -118 261 -238 12
-57 21 -147 16 -182 -3 -31 -7 -35 -18 -26 -11 9 -14 8 -14 -5 0 -9 7 -16 15
-16 17 0 18 -2 9 -25 -6 -13 -9 -14 -16 -3 -7 9 -8 4 -4 -14 4 -15 -1 -45 -10
-68 -16 -39 -17 -40 -35 -24 -11 10 -22 14 -26 10 -5 -4 0 -12 10 -17 9 -6 17
-18 17 -27 -1 -24 -56 -86 -69 -78 -6 4 -11 1 -11 -6 -1 -15 -28 -54 -34 -47
-2 2 -7 20 -10 39 -7 34 -6 34 10 15 15 -18 16 -18 10 -2 -3 10 -6 23 -6 28 0
16 -15 10 -28 -11 -9 -15 -10 -26 -2 -41 6 -11 10 -28 8 -37 -2 -12 -10 -6
-28 22 -13 22 -26 34 -28 27 -2 -6 3 -23 12 -36 18 -27 21 -39 7 -30 -5 3 -11
-3 -14 -12 -2 -11 -8 -2 -16 25 -16 55 -22 53 -16 -5 2 -27 2 -39 -1 -29 -6
19 -7 18 -20 -5 -7 -13 -13 -18 -14 -10 0 8 -8 4 -20 -10 l-20 -24 11 28 c7
15 16 27 20 27 4 0 5 9 2 20 -3 11 -1 20 3 20 5 0 6 44 3 98 -7 106 -28 167
-79 233 l-30 37 29 51 c46 78 63 138 62 221 -1 127 -46 228 -140 312 -77 69
-132 93 -216 93 -76 0 -125 -10 -125 -25 0 -6 8 -10 18 -10 24 0 134 -43 177
-70 48 -29 118 -110 146 -167 19 -40 23 -65 24 -143 0 -107 -14 -153 -71 -233
l-35 -48 35 -41 c54 -62 70 -105 70 -178 0 -77 -23 -136 -78 -194 -32 -34 -38
-37 -53 -25 -15 13 -16 12 -11 -8 7 -26 -1 -29 -21 -10 -11 10 -13 9 -8 -4 3
-9 0 -22 -6 -28 -17 -17 -26 -13 -20 9 4 16 2 19 -11 14 -11 -4 -22 1 -31 12
-13 18 -14 18 -15 2 0 -10 6 -18 13 -18 9 0 9 -2 -1 -8 -7 -5 -10 -16 -7 -24
4 -9 2 -19 -4 -22 -11 -7 -35 30 -27 43 3 5 -2 15 -11 22 -15 12 -16 12 -10
-3 3 -10 2 -18 -4 -18 -6 0 -3 -7 5 -16 25 -25 15 -54 -11 -32 -11 8 -17 7
-28 -8 -9 -11 -14 -14 -15 -6 0 7 -10 17 -22 22 -13 5 -17 9 -10 9 9 1 10 5 1
20 -8 12 -19 16 -32 13 -20 -5 -20 -5 1 -13 14 -5 20 -14 16 -24 -3 -8 -1 -15
5 -15 6 0 11 -4 11 -10 0 -5 -7 -10 -15 -10 -8 0 -15 6 -15 14 0 7 -16 26 -35
40 -19 15 -35 22 -35 17 0 -6 13 -20 30 -32 16 -12 27 -26 24 -31 -8 -12 -24
-10 -24 5 0 7 -9 18 -19 24 -16 10 -18 9 -14 -8 4 -14 0 -19 -15 -19 -12 0
-24 5 -27 10 -4 6 -11 8 -16 5 -5 -4 -9 0 -9 8 0 8 -7 20 -15 27 -9 7 -13 15
-11 17 2 3 6 3 8 2 11 -10 112 107 135 157 32 70 38 180 15 259 l-15 50 -17
-70 c-17 -70 -46 -135 -84 -187 -15 -21 -23 -25 -33 -17 -10 9 -13 6 -13 -14
0 -14 -4 -29 -10 -32 -6 -3 -7 1 -4 9 3 9 1 16 -6 16 -6 0 -8 5 -4 12 4 6 3 8
-3 5 -6 -4 -9 -18 -8 -32 2 -14 -1 -25 -6 -25 -5 0 -9 4 -9 10 0 5 -7 7 -15 4
-10 -4 -15 0 -15 11 0 9 -5 13 -10 10 -8 -5 -8 -11 0 -20 7 -9 6 -16 -5 -25
-13 -10 -15 -9 -15 9 0 11 -4 21 -9 21 -5 0 -7 -8 -4 -19 6 -22 -23 -36 -31
-15 -3 8 -1 14 4 14 6 0 10 5 10 11 0 6 -5 7 -12 2 -7 -4 -21 -6 -30 -5 -10 2
-18 -1 -18 -6 0 -5 7 -9 16 -8 9 0 19 -5 22 -13 3 -10 0 -12 -11 -8 -8 3 -18
3 -21 0 -12 -13 -56 -11 -56 1 0 20 12 27 27 15 8 -7 13 -8 13 -1 0 10 -23 22
-41 22 -5 0 -9 -9 -9 -19 0 -15 -7 -19 -30 -19 -16 1 -27 5 -24 9 3 5 -1 6 -9
3 -8 -3 -18 -1 -21 5 -4 6 -14 7 -22 4 -14 -5 -15 -3 -5 15 6 12 7 23 2 26 -5
3 -11 -3 -14 -14 -5 -21 -27 -28 -27 -9 0 5 -5 7 -12 3 -7 -5 -9 -2 -5 9 4 11
2 14 -9 10 -20 -7 -54 25 -54 51 0 16 -3 18 -9 7 -6 -9 -11 -10 -15 -2 -4 6
-4 16 0 23 4 7 3 8 -4 4 -7 -4 -17 3 -24 19 -28 62 -50 -22 -27 -104 13 -44
93 -141 129 -154 11 -4 5 -15 -25 -41 -48 -43 -140 -90 -160 -82 -8 3 -15 1
-15 -5 0 -6 -5 -7 -10 -4 -6 4 -8 16 -5 28 5 19 5 20 -5 4 -6 -9 -8 -22 -4
-28 4 -7 1 -10 -7 -7 -8 3 -13 15 -11 28 3 15 0 20 -8 15 -7 -4 -10 -18 -7
-31 3 -16 0 -24 -9 -24 -14 0 -18 12 -15 38 1 6 -3 12 -9 12 -5 0 -10 -9 -10
-20 0 -26 -17 -32 -55 -21 -23 6 -29 13 -28 29 4 30 -5 27 -18 -5 -8 -20 -12
-24 -22 -14 -9 9 -9 14 3 21 13 9 13 11 0 19 -19 13 -31 4 -23 -15 5 -13 1
-15 -18 -9 -35 11 -89 45 -89 57 0 5 3 8 8 6 48 -24 62 -33 62 -40 0 -5 5 -6
10 -3 6 3 10 11 10 16 0 6 -4 7 -10 4 -5 -3 -10 -1 -10 4 0 6 -3 10 -7 10 -42
-7 -43 18 -3 73 36 49 60 125 60 187 0 50 -9 91 -19 90 -3 0 -23 -35 -44 -78
-21 -43 -57 -99 -80 -124 -46 -51 -154 -120 -174 -113 -7 3 -13 1 -13 -4 0 -6
-7 -10 -16 -10 -11 0 -15 6 -11 20 3 11 1 20 -4 20 -5 0 -9 -10 -9 -22 0 -21
-4 -23 -66 -24 -64 0 -65 0 -59 24 4 15 2 21 -5 17 -5 -3 -10 -15 -10 -25 0
-17 -5 -19 -32 -13 -56 10 -134 52 -178 94 -56 54 -90 133 -99 222 l-7 72 -20
-40 c-12 -22 -29 -62 -39 -88 -12 -32 -23 -46 -32 -43 -9 4 -13 -3 -13 -21 0
-26 -1 -26 -15 -7 -14 19 -14 19 -9 -1 4 -17 0 -20 -31 -21 -34 -1 -36 1 -32
22 2 13 0 24 -4 24 -8 0 -13 -23 -10 -42 0 -5 -3 -8 -9 -8 -5 0 -10 5 -10 12
0 9 -3 9 -12 0 -17 -17 -28 -15 -21 6 5 14 3 15 -8 5 -7 -7 -17 -13 -21 -13
-12 0 -6 33 7 42 6 5 5 8 -3 8 -8 0 -16 -9 -19 -20 -6 -24 -2 -24 -55 -1 -93
41 -178 151 -194 253 -4 21 -10 38 -15 38 -5 0 -16 -25 -24 -55 -19 -63 -17
-175 3 -175 15 0 16 -16 0 -26 -8 -5 -5 -11 7 -20 10 -8 26 -26 36 -40 17 -26
17 -28 -4 -46 l-22 -19 22 10 c30 15 38 14 23 -4 -10 -13 -9 -15 10 -15 21 0
22 -1 6 -25 -19 -28 -15 -33 8 -9 9 9 16 11 16 4 0 -6 6 -8 13 -4 6 4 1 -6
-13 -22 -14 -15 -18 -24 -10 -18 18 14 50 14 50 1 0 -5 -7 -7 -15 -3 -8 3 -15
0 -15 -5 0 -7 11 -9 25 -7 14 3 25 1 25 -4 0 -5 4 -7 8 -4 4 2 14 0 22 -5 15
-10 -41 -7 -104 6 -79 16 -159 87 -201 177 l-23 50 -7 -56 c-7 -50 -4 -77 11
-128 3 -12 0 -18 -9 -18 -8 0 -17 -9 -20 -21 -5 -19 -4 -20 12 -5 21 19 31 20
31 5 0 -7 7 -17 17 -24 11 -8 13 -14 5 -19 -7 -4 -12 -2 -12 4 0 6 -5 8 -12 4
-7 -5 -8 -3 -3 6 5 8 3 11 -6 8 -8 -3 -13 -10 -12 -16 2 -6 -11 -10 -27 -10
-31 1 -36 7 -22 24 4 5 -4 -1 -17 -14 -30 -31 -39 -21 -12 14 12 15 18 30 15
33 -4 3 -9 1 -11 -6 -7 -19 -45 -64 -50 -59 -3 2 3 15 12 29 11 17 13 27 6 32
-7 3 -11 -3 -11 -15 0 -16 -4 -20 -16 -16 -10 4 -22 -1 -30 -11 -10 -13 -13
-14 -14 -4 0 11 -3 11 -15 1 -13 -11 -19 -7 -17 11 1 3 -11 4 -25 1 -17 -3
-24 -1 -19 6 4 6 -2 8 -14 5 -26 -7 -26 8 1 30 11 10 18 21 15 25 -4 3 -17 -7
-30 -23 -22 -28 -24 -28 -48 -13 -103 68 -168 171 -168 268 0 65 35 148 80
190 l30 28 -34 50 c-42 63 -60 136 -54 216 13 157 139 270 315 285 58 4 78 10
78 20 0 8 5 16 11 18 7 2 13 -22 17 -66 7 -83 29 -137 85 -207 l40 -51 -49
-24 c-63 -29 -144 -113 -159 -166 -10 -33 -10 -45 4 -71 24 -46 33 -47 55 -4
40 79 134 137 251 154 50 7 82 7 115 -1 91 -23 191 -25 261 -6 59 16 65 20 60
39 -16 57 -17 94 -3 134 15 44 15 44 -4 23 -10 -11 -19 -25 -19 -30 0 -6 -13
-17 -30 -26 -16 -9 -30 -13 -30 -9 0 4 -7 1 -15 -6 -12 -10 -19 -10 -27 -2 -7
7 -8 15 -4 19 4 4 11 1 15 -6 6 -9 9 -5 9 13 0 14 -5 26 -10 26 -5 0 -7 -4 -4
-9 3 -5 -1 -11 -9 -15 -8 -3 -15 -12 -15 -20 0 -7 -9 -16 -20 -19 -24 -6 -25
-1 -5 20 18 18 15 38 -6 38 -8 0 -15 -12 -17 -27 -2 -16 -8 -28 -14 -28 -6 0
-8 9 -5 20 5 20 -18 48 -30 36 -4 -4 -3 -10 3 -14 15 -10 13 -42 -2 -42 -8 0
-11 7 -7 18 5 14 3 15 -8 5 -21 -20 -34 -15 -16 5 29 32 18 37 -13 7 -34 -32
-37 -28 -15 15 9 17 12 30 7 30 -5 0 -14 -12 -21 -27 -10 -22 -14 -24 -22 -12
-8 12 -9 12 -9 -1 0 -10 -3 -11 -11 -3 -13 13 -4 33 17 33 8 0 14 5 14 10 0
16 -14 12 -39 -11 l-22 -21 -47 39 c-27 23 -59 64 -74 94 -29 56 -50 168 -30
155 6 -4 8 1 5 13 -14 53 82 158 171 187 59 20 167 27 214 14 41 -11 34 2 -19
36 -68 42 -126 57 -205 51 l-72 -5 -6 30 c-19 96 5 173 76 245 64 65 129 94
233 103 l80 6 -60 29 c-122 59 -246 40 -343 -53 -27 -26 -55 -56 -61 -67 -10
-16 -13 -17 -18 -5 -19 47 -115 98 -172 92 l-24 -3 20 33 c26 44 105 103 173
129 83 31 266 38 341 12 l56 -19 31 24 c17 13 48 30 68 37 l37 12 -35 7 c-19
3 -44 15 -55 26 -12 10 -24 16 -27 13 -3 -4 -6 -1 -6 6 0 8 -7 11 -15 7 -8 -3
-15 0 -15 6 0 6 -3 9 -6 5 -4 -3 -13 1 -21 9 -12 11 -18 12 -29 3 -11 -9 -14
-8 -14 4 0 44 137 107 233 107 83 0 126 -13 173 -54 l40 -34 27 52 c15 29 44
69 65 89 68 66 120 81 185 53z m1042 -140 c57 -28 86 -50 115 -88 36 -45 48
-68 35 -68 -2 0 -22 9 -44 21 -22 11 -45 18 -51 14 -5 -3 -10 -1 -10 5 0 7 -6
10 -12 7 -7 -2 -21 0 -30 5 -12 6 -18 5 -18 -3 0 -8 -7 -6 -18 4 -10 10 -25
17 -33 17 -12 0 -12 -2 1 -10 25 -15 6 -20 -23 -5 -15 8 -27 10 -27 4 0 -12
-37 -12 -45 1 -9 15 -25 12 -25 -5 0 -20 -20 -19 -36 3 -13 16 -13 16 -14 0 0
-23 -50 -25 -50 -2 0 8 -5 12 -11 9 -6 -4 -8 -13 -5 -21 3 -8 1 -14 -5 -14 -5
0 -11 6 -13 13 -1 6 -10 34 -18 60 l-16 48 32 16 c54 28 79 33 163 30 71 -3
92 -8 158 -41z m-2154 -502 c38 -8 69 -19 69 -22 0 -4 -7 -31 -14 -60 -18 -67
-7 -175 23 -221 7 -10 -3 -29 -34 -68 -24 -29 -51 -75 -60 -103 -14 -43 -20
-49 -38 -45 -60 14 -148 11 -218 -6 -123 -32 -212 -105 -273 -227 -23 -46 -30
-52 -49 -47 -124 36 -152 70 -152 180 1 102 45 180 146 257 83 62 276 108 395
94 30 -3 54 -4 54 -1 0 19 -161 90 -174 77 -3 -3 -6 -1 -6 5 0 5 -22 8 -50 7
-27 -2 -50 0 -50 5 0 19 62 92 102 118 100 68 203 86 329 57z m-579 -954 c4
-53 14 -87 38 -136 l33 -65 -26 -27 c-14 -15 -36 -49 -49 -77 -20 -43 -23 -66
-23 -165 0 -85 5 -125 17 -152 15 -32 15 -37 1 -42 -11 -5 -13 -2 -9 10 6 15
4 15 -10 3 -14 -11 -18 -11 -21 -1 -3 6 -9 9 -15 6 -6 -4 -9 -1 -6 7 2 7 15
16 29 20 19 6 20 7 5 8 -11 1 -28 -7 -39 -16 -18 -17 -20 -17 -33 2 -8 11 -16
18 -18 15 -6 -11 -68 51 -63 64 3 8 -1 13 -10 12 -24 -2 -82 112 -99 195 -47
223 63 407 242 409 l51 0 5 -70z m38 -686 c0 -2 -7 -4 -15 -4 -8 0 -15 4 -15
10 0 5 7 7 15 4 8 -4 15 -8 15 -10z m2998 -40 c-4 -3 -15 3 -26 14 -11 11 -18
23 -14 26 3 4 15 -2 26 -13 11 -11 17 -23 14 -27z m352 31 c0 -8 -4 -15 -10
-15 -5 0 -10 7 -10 15 0 8 5 15 10 15 6 0 10 -7 10 -15z m519 -281 c27 -34 26
-52 -1 -81 l-21 -23 -2008 0 -2008 0 -20 26 c-27 34 -26 52 1 81 l21 23 2008
0 2008 0 20 -26z m-3541 -231 l-3 -58 -246 0 c-229 0 -248 1 -268 19 -26 24
-27 50 -1 76 19 19 33 20 270 20 l251 0 -3 -57z m1482 -3 l0 -60 -647 0 c-357
0 -658 3 -670 6 -13 4 -23 12 -23 19 0 6 -14 31 -30 53 l-30 42 700 0 700 0 0
-60z m2060 40 c27 -27 25 -55 -6 -79 -27 -21 -30 -21 -1000 -21 l-972 0 -5 28
c-3 15 -5 42 -6 60 l-1 32 985 0 c972 0 985 0 1005 -20z m-3546 -191 c3 -17 6
-44 6 -60 l0 -29 -254 0 c-252 0 -255 0 -270 22 -23 32 -20 54 10 77 25 20 39
21 264 21 l238 0 6 -31z m1486 -29 l0 -60 -704 0 -704 0 -4 55 c-2 42 0 55 12
59 8 2 327 4 708 5 l692 1 0 -60z m1442 52 c-7 -5 -15 -32 -19 -60 l-6 -52
-668 0 c-454 0 -670 3 -674 10 -4 6 -4 33 0 60 l7 50 686 0 c378 0 681 -4 674
-8z m613 -17 c29 -28 31 -42 9 -73 -15 -22 -18 -22 -267 -22 l-252 0 0 60 0
60 243 0 243 0 24 -25z m-3542 -202 c6 -57 3 -63 -27 -63 -13 0 -42 -6 -64
-14 -30 -11 -86 -14 -222 -13 -178 2 -182 2 -201 26 -26 31 -24 57 6 86 l24
25 239 0 239 0 6 -47z m1485 5 c3 -37 2 -38 -30 -38 -19 0 -49 -11 -70 -25
-34 -23 -49 -25 -191 -31 l-154 -7 -7 39 c-9 49 -39 82 -82 90 -61 11 -106
-20 -124 -88 l-11 -37 -369 -1 -370 0 0 68 0 69 703 -1 702 -1 3 -37z m2062
12 c25 -33 25 -62 -1 -86 -19 -18 -39 -19 -258 -19 -130 0 -261 1 -291 3 -30
1 -200 -1 -377 -4 l-323 -5 0 26 c0 63 -45 105 -112 105 -42 0 -98 -57 -98
-99 l0 -31 -259 3 c-293 2 -272 -5 -263 86 l5 52 979 -3 979 -3 19 -25z
m-3684 -194 c22 -89 153 -92 202 -5 l17 30 400 -5 c491 -7 432 -7 663 0 l193
5 25 -25 c27 -26 89 -42 126 -31 13 4 34 18 48 31 l25 23 300 -4 c377 -5 304
-5 701 1 l340 5 10 -38 c6 -27 16 -40 36 -47 39 -14 78 14 78 55 l0 31 245 -4
c231 -3 246 -4 265 -24 11 -11 23 -36 26 -55 5 -29 1 -41 -19 -65 l-25 -29
-2002 0 -2002 0 -24 28 c-39 46 -25 115 30 137 11 5 92 9 178 9 l158 1 6 -24z
m1839 -273 c4 -21 10 -47 14 -58 5 -11 7 -31 6 -45 -1 -14 3 -28 9 -32 8 -6 7
-11 -3 -17 -11 -7 -9 -11 8 -20 11 -7 21 -17 21 -23 0 -7 -5 -6 -15 2 -16 13
-16 -11 2 -170 2 -25 4 -59 4 -77 -1 -31 27 -61 43 -46 3 3 6 1 6 -6 0 -7 -9
-9 -24 -5 -20 5 -25 1 -31 -24 -7 -33 -44 -71 -95 -98 -43 -23 -175 -26 -233
-5 -44 15 -107 76 -107 103 0 22 1 22 -43 3 -20 -8 -57 -15 -82 -15 -38 0 -52
5 -77 30 -28 28 -30 35 -26 81 6 58 31 90 98 124 55 28 84 58 106 110 21 50
54 172 54 203 0 22 0 22 180 22 l179 0 6 -37z m90 -243 c4 -6 -2 -9 -14 -7
-29 4 -39 17 -13 17 11 0 24 -5 27 -10z m5 -45 c39 -20 38 -26 -2 -14 -18 5
-34 9 -35 9 -2 0 -3 5 -3 10 0 13 6 13 40 -5z m35 -54 c26 -4 34 -9 24 -13
-22 -9 -111 11 -103 24 3 5 13 6 23 2 9 -4 34 -10 56 -13z m95 -10 c0 -6 -9
-9 -20 -8 -11 1 -20 5 -20 9 0 4 9 8 20 8 11 0 20 -4 20 -9z m-66 -37 c27 -2
52 -7 55 -10 3 -4 -27 -4 -68 -1 -41 3 -79 11 -85 18 -8 9 -4 10 19 4 17 -4
52 -9 79 -11z m-36 -44 c6 0 12 -5 12 -10 0 -12 -50 -2 -65 13 -7 6 -2 8 15 3
14 -3 31 -6 38 -6z m66 -13 c3 3 6 1 6 -5 0 -7 -4 -12 -9 -12 -18 0 -41 12
-41 21 0 6 8 6 19 0 10 -6 21 -7 25 -4z m-33 -47 c10 0 19 -4 19 -10 0 -13
-29 -8 -55 9 -17 11 -17 12 -2 7 10 -3 27 -6 38 -6z m-484 -801 c53 -20 183
-23 251 -5 78 20 122 20 232 2 47 -8 110 -17 139 -21 30 -3 57 -7 59 -10 2 -2
-20 -16 -49 -31 -247 -125 -534 -147 -814 -63 -81 24 -205 85 -205 100 0 5 3
8 8 6 4 -2 61 4 127 13 144 21 214 24 252 9z"/>
<path d="M4823 7716 c-73 -61 -112 -187 -102 -332 l6 -89 -30 -25 c-16 -14
-57 -48 -91 -76 -118 -98 -161 -179 -160 -304 1 -185 180 -349 381 -350 l41 0
12 -52 c32 -148 21 -235 -35 -288 -31 -29 -37 -24 -25 20 30 104 -66 215 -178
204 -161 -16 -230 -197 -118 -309 48 -47 143 -81 199 -70 17 3 41 8 53 10 37
5 102 44 138 81 66 68 85 200 50 350 -15 68 -11 83 21 84 17 0 72 55 91 91 26
49 24 133 -5 187 -25 50 -93 97 -151 107 -44 8 -42 2 -66 121 l-18 92 55 50
c33 30 66 73 83 108 96 196 -22 499 -151 390z m72 -113 c34 -83 17 -161 -51
-232 l-44 -46 0 77 c0 82 23 162 56 199 21 24 30 24 39 2z m-101 -648 c15 -82
33 -183 41 -224 22 -108 23 -104 -32 -97 -156 22 -262 149 -229 275 7 26 22
61 35 77 31 41 145 134 152 126 4 -4 19 -74 33 -157z m172 -129 c44 -44 47
-99 8 -145 -14 -17 -29 -31 -33 -31 -7 0 -16 38 -46 193 -6 29 34 20 71 -17z"/>
<path d="M5164 7498 c-47 -56 -67 -114 -60 -172 9 -72 24 -114 57 -163 l29
-42 -22 -48 c-32 -70 -32 -194 1 -286 14 -37 28 -64 31 -60 4 5 12 28 19 53
18 64 67 136 123 180 47 38 69 48 156 70 54 14 54 24 0 28 -23 1 -45 6 -48 11
-3 4 -13 7 -22 5 -11 -1 -18 4 -18 14 0 13 -2 14 -8 4 -6 -9 -16 -10 -33 -3
-35 13 -90 61 -83 72 3 5 1 8 -5 7 -6 -2 -28 33 -49 77 -35 76 -37 85 -37 182
0 57 -1 103 -2 103 0 0 -14 -15 -29 -32z"/>
<path d="M5794 7399 c-4 -7 -9 -157 -12 -335 l-5 -322 -56 1 c-136 1 -225
-114 -160 -205 59 -83 223 -73 279 16 19 31 20 49 20 297 0 145 4 270 8 277 7
9 13 7 28 -9 36 -41 179 -142 240 -170 67 -30 189 -57 201 -44 5 4 2 10 -5 12
-7 3 -69 46 -139 96 -153 111 -263 217 -326 314 -51 78 -62 89 -73 72z"/>
<path d="M6230 6535 c0 -260 -1 -277 -17 -269 -44 19 -102 16 -156 -9 -45 -20
-58 -32 -77 -72 -20 -41 -21 -51 -11 -85 14 -46 48 -76 104 -91 98 -26 228 53
233 141 0 14 2 96 2 183 2 174 1 172 67 141 48 -22 101 -80 122 -130 20 -49
31 -53 58 -24 14 15 16 29 11 61 -10 62 -30 94 -122 190 -82 87 -144 177 -144
212 0 10 -8 17 -19 17 -11 0 -26 3 -35 6 -14 6 -16 -22 -16 -271z"/>
<path d="M5308 6542 c3 -47 -1 -86 -12 -125 -9 -31 -17 -60 -18 -64 0 -5 -10
-14 -22 -22 -11 -8 -24 -21 -29 -27 -4 -7 -14 -11 -21 -8 -8 3 -16 -4 -20 -18
-7 -22 -7 -22 -16 -3 -8 19 -9 19 -9 -2 -1 -27 -9 -29 -25 -8 -9 12 -11 6 -13
-31 l-2 -46 49 -20 c35 -14 53 -29 63 -52 20 -41 37 -105 32 -119 -2 -7 -6
-24 -9 -39 -14 -65 -114 -137 -193 -140 -46 -2 -41 -14 11 -27 97 -24 174 -8
242 52 24 21 44 47 44 56 0 29 11 31 54 8 61 -32 182 -31 251 2 l50 25 -52 6
c-57 6 -75 16 -48 26 9 4 20 2 24 -4 3 -6 15 -9 26 -7 11 2 23 4 26 4 4 1 10
9 13 18 6 15 4 15 -14 -2 -11 -10 -20 -13 -20 -7 0 6 -6 9 -14 6 -11 -4 -13 0
-9 15 3 13 1 21 -6 21 -7 0 -10 -4 -6 -9 3 -5 -9 -17 -26 -25 -39 -20 -40 -20
-33 -1 4 8 12 15 19 15 16 0 30 18 21 27 -3 3 -11 1 -18 -5 -14 -11 -89 -12
-82 -1 2 4 -5 10 -16 14 -24 7 -26 23 -5 31 8 4 15 9 15 13 0 9 -47 7 -70 -2
-9 -4 -22 3 -33 18 -18 25 -18 25 5 17 13 -4 39 -5 58 -1 41 7 39 9 -13 14
-21 2 -44 8 -52 15 -8 7 -15 9 -15 4 0 -11 -20 18 -20 29 0 4 10 3 21 -4 12
-6 36 -13 53 -15 26 -4 28 -3 13 7 -11 6 -24 12 -30 14 -65 17 -72 40 -9 30
28 -5 33 -4 22 4 -8 6 -25 11 -36 11 -12 0 -29 11 -38 25 -9 14 -12 25 -6 25
5 0 9 3 9 8 -4 26 1 34 16 22 9 -7 18 -10 22 -6 4 3 -4 14 -16 22 -19 14 -22
22 -16 48 13 60 5 129 -22 184 -42 83 -51 84 -45 4z m172 -479 c0 -14 -19 -38
-25 -32 -8 8 5 39 16 39 5 0 9 -3 9 -7z m85 -84 c-7 -11 -35 -12 -35 -1 0 4 9
8 20 9 11 1 18 -2 15 -8z"/>
<path d="M3927 6531 c3 -12 9 -21 14 -21 14 0 11 16 -5 29 -12 10 -13 8 -9 -8z"/>
<path d="M3969 6497 c-15 -11 -15 -16 -2 -41 8 -15 17 -26 19 -23 3 3 0 14 -7
25 -10 17 -10 23 0 36 16 19 12 20 -10 3z"/>
<path d="M4030 6434 c0 -8 5 -12 10 -9 6 3 10 10 10 16 0 5 -4 9 -10 9 -5 0
-10 -7 -10 -16z"/>
<path d="M4045 6389 c-11 -17 1 -21 15 -4 8 9 8 15 2 15 -6 0 -14 -5 -17 -11z"/>
<path d="M4356 6355 c-3 -8 -1 -15 4 -15 6 0 10 7 10 15 0 8 -2 15 -4 15 -2 0
-6 -7 -10 -15z"/>
<path d="M5386 6343 c-6 -14 -5 -15 5 -6 7 7 10 15 7 18 -3 3 -9 -2 -12 -12z"/>
<path d="M5385 6250 c3 -5 15 -10 26 -10 11 0 17 5 14 10 -3 6 -15 10 -26 10
-11 0 -17 -4 -14 -10z"/>
<path d="M7281 6054 c0 -11 3 -14 6 -6 3 7 2 16 -1 19 -3 4 -6 -2 -5 -13z"/>
<path d="M5520 6050 c-12 -8 -11 -10 8 -10 12 0 22 5 22 10 0 13 -11 13 -30 0z"/>
<path d="M5555 6020 c-3 -5 -2 -10 4 -10 5 0 13 5 16 10 3 6 2 10 -4 10 -5 0
-13 -4 -16 -10z"/>
<path d="M7240 5958 c0 -9 5 -20 10 -23 13 -8 13 5 0 25 -8 13 -10 13 -10 -2z"/>
<path d="M7233 5904 c-3 -8 -1 -20 4 -25 7 -7 12 -2 15 15 6 28 -9 36 -19 10z"/>
<path d="M7177 5823 c10 -29 14 -34 24 -28 5 4 5 14 -1 26 -13 24 -32 25 -23
2z"/>
<path d="M7142 5785 c-1 -14 3 -25 9 -25 6 0 9 7 6 14 -4 11 -1 13 11 9 15 -6
15 -5 3 10 -19 23 -26 21 -29 -8z"/>
<path d="M4200 5755 c0 -7 30 -13 34 -7 3 4 -4 9 -15 9 -10 1 -19 0 -19 -2z"/>
<path d="M4300 5748 c0 -6 3 -8 7 -5 3 4 12 2 20 -4 10 -9 13 -8 13 3 0 7 -9
14 -20 15 -11 1 -20 -3 -20 -9z"/>
<path d="M4400 5741 c-6 -12 -7 -21 -1 -21 10 0 24 30 17 37 -2 3 -9 -5 -16
-16z"/>
<path d="M6797 5723 c6 -16 5 -16 -10 -4 -11 9 -17 10 -17 2 0 -6 5 -11 11
-11 6 0 8 -8 5 -17 -4 -11 1 -8 13 7 19 24 19 40 1 40 -5 0 -6 -8 -3 -17z"/>
<path d="M3990 5720 c0 -5 5 -10 11 -10 5 0 7 5 4 10 -3 6 -8 10 -11 10 -2 0
-4 -4 -4 -10z"/>
<path d="M5920 5721 c0 -5 7 -11 15 -15 8 -3 15 -1 15 3 0 5 -7 11 -15 15 -8
3 -15 1 -15 -3z"/>
<path d="M5965 5711 c-6 -11 9 -23 19 -14 9 9 7 23 -3 23 -6 0 -12 -4 -16 -9z"/>
<path d="M3400 5704 c0 -13 18 -39 24 -34 2 3 -2 14 -10 24 -8 11 -14 16 -14
10z"/>
<path d="M3998 5693 c7 -3 16 -2 19 1 4 3 -2 6 -13 5 -11 0 -14 -3 -6 -6z"/>
<path d="M6743 5665 c0 -14 3 -25 7 -25 11 0 18 22 12 38 -7 21 -19 13 -19
-13z"/>
<path d="M3440 5650 c-9 -6 -10 -10 -3 -10 6 0 15 5 18 10 8 12 4 12 -15 0z"/>
<path d="M6700 5651 c0 -16 27 -44 33 -34 2 5 -4 17 -14 27 -12 12 -19 15 -19
7z"/>
<path d="M3471 5623 c-10 -26 -10 -27 4 -9 8 11 15 23 15 28 0 15 -7 8 -19
-19z"/>
<path d="M6666 5624 c-4 -9 -4 -19 -1 -22 3 -3 5 0 5 7 0 7 5 9 10 6 6 -3 10
-2 10 4 0 18 -18 21 -24 5z"/>
<path d="M5140 5605 c0 -8 2 -15 4 -15 2 0 6 7 10 15 3 8 1 15 -4 15 -6 0 -10
-7 -10 -15z"/>
<path d="M6620 5612 c0 -12 19 -26 26 -19 2 2 -2 10 -11 17 -9 8 -15 8 -15 2z"/>
<path d="M3532 5590 c-7 -11 -12 -25 -12 -32 1 -7 8 0 16 15 18 33 14 46 -4
17z"/>
<path d="M5116 5595 c4 -8 8 -15 10 -15 2 0 4 7 4 15 0 8 -4 15 -10 15 -5 0
-7 -7 -4 -15z"/>
<path d="M4791 5584 c0 -11 3 -14 6 -6 3 7 2 16 -1 19 -3 4 -6 -2 -5 -13z"/>
<path d="M4820 5579 c0 -5 5 -7 10 -4 6 3 10 8 10 11 0 2 -4 4 -10 4 -5 0 -10
-5 -10 -11z"/>
<path d="M4923 5573 c-18 -7 -16 -20 2 -20 8 0 15 6 15 14 0 7 -1 13 -2 12 -2
0 -9 -3 -15 -6z"/>
<path d="M4990 5570 c0 -5 5 -10 11 -10 5 0 7 5 4 10 -3 6 -8 10 -11 10 -2 0
-4 -4 -4 -10z"/>
<path d="M6490 5568 c0 -19 18 -43 25 -36 9 9 -4 48 -16 48 -5 0 -9 -6 -9 -12z"/>
<path d="M3620 5560 c0 -5 5 -10 10 -10 6 0 10 5 10 10 0 6 -4 10 -10 10 -5 0
-10 -4 -10 -10z"/>
<path d="M3657 5556 c-4 -10 -5 -21 -2 -24 9 -9 17 6 13 25 -3 17 -4 17 -11
-1z"/>
<path d="M6310 5548 c0 -17 18 -44 24 -37 8 7 -5 49 -15 49 -5 0 -9 -6 -9 -12z"/>
<path d="M5736 5523 c-6 -14 -5 -15 5 -6 7 7 10 15 7 18 -3 3 -9 -2 -12 -12z"/>
<path d="M5695 5510 c3 -5 8 -10 11 -10 2 0 4 5 4 10 0 6 -5 10 -11 10 -5 0
-7 -4 -4 -10z"/>
<path d="M5620 5486 c0 -6 9 -12 20 -12 11 0 20 3 20 7 0 4 -9 9 -20 12 -12 3
-20 0 -20 -7z"/>
<path d="M5675 5490 c3 -5 8 -10 11 -10 2 0 4 5 4 10 0 6 -5 10 -11 10 -5 0
-7 -4 -4 -10z"/>
<path d="M5460 5475 c-8 -9 -8 -15 -2 -15 12 0 26 19 19 26 -2 2 -10 -2 -17
-11z"/>
<path d="M5491 5464 c0 -11 3 -14 6 -6 3 7 2 16 -1 19 -3 4 -6 -2 -5 -13z"/>
<path d="M2956 5917 c3 -10 9 -15 12 -12 3 3 0 11 -7 18 -10 9 -11 8 -5 -6z"/>
<path d="M2975 5860 c3 -5 11 -10 16 -10 6 0 7 5 4 10 -3 6 -11 10 -16 10 -6
0 -7 -4 -4 -10z"/>
<path d="M3010 5785 c0 -9 6 -12 15 -9 8 4 15 7 15 9 0 2 -7 5 -15 9 -9 3 -15
0 -15 -9z"/>
<path d="M3048 5742 c-10 -2 -18 -8 -18 -13 0 -13 27 -11 35 2 9 13 4 16 -17
11z"/>
<path d="M3091 5697 c-13 -21 -12 -21 5 -5 10 10 16 20 13 22 -3 3 -11 -5 -18
-17z"/>
<path d="M3123 5666 c-13 -6 -23 -14 -23 -17 0 -13 39 3 44 17 3 8 4 13 3 13
-1 -1 -12 -6 -24 -13z"/>
<path d="M3150 5635 c-19 -23 -8 -25 14 -4 11 11 15 19 9 19 -6 0 -16 -7 -23
-15z"/>
<path d="M3996 8065 c-6 -16 30 -105 43 -105 5 0 14 6 21 14 9 12 7 24 -9 60
-20 46 -44 59 -55 31z"/>
<path d="M6950 7988 c-36 -51 -100 -139 -142 -196 -43 -57 -78 -107 -78 -111
0 -14 29 -33 39 -26 10 5 267 343 285 373 7 12 -18 52 -33 52 -4 0 -36 -41
-71 -92z"/>
<path d="M6800 8053 c-50 -35 -72 -59 -109 -118 -76 -121 -93 -156 -80 -171 6
-8 15 -11 20 -8 6 3 45 58 87 122 132 198 140 216 82 175z"/>
<path d="M6184 8025 c-7 -28 0 -55 15 -55 5 0 16 12 26 26 13 20 14 28 4 40
-18 22 -38 17 -45 -11z"/>
<path d="M8042 8038 c-14 -14 -16 -38 -4 -38 14 0 43 36 35 43 -9 10 -17 9
-31 -5z"/>
<path d="M2982 8024 c1 -9 9 -19 16 -22 9 -3 13 2 10 14 -1 9 -9 19 -16 22 -9
3 -13 -2 -10 -14z"/>
<path d="M3636 7961 c26 -46 44 -64 44 -43 -1 16 -46 86 -59 90 -8 3 -3 -15
15 -47z"/>
<path d="M3806 8001 c-10 -16 38 -121 56 -121 25 0 27 21 5 70 -24 54 -47 74
-61 51z"/>
<path d="M6368 7946 c-12 -25 -14 -36 -5 -45 18 -18 27 -13 43 25 13 30 13 38
2 45 -20 13 -23 11 -40 -25z"/>
<path d="M6565 7950 c-18 -35 -4 -41 19 -8 18 26 20 38 6 38 -5 0 -16 -13 -25
-30z"/>
<path d="M3496 7957 c-18 -13 -15 -20 45 -115 35 -56 69 -101 75 -102 6 0 17
7 24 15 10 12 7 23 -14 57 -14 24 -41 67 -59 97 -37 61 -45 67 -71 48z"/>
<path d="M8112 7919 c-36 -35 -40 -49 -14 -49 22 1 72 45 72 65 0 24 -23 18
-58 -16z"/>
<path d="M3064 7925 c-8 -20 7 -42 160 -233 l131 -164 17 22 c11 14 15 27 10
34 -5 6 -64 81 -132 166 -152 193 -172 212 -186 175z"/>
<path d="M3280 7924 c0 -8 157 -235 197 -283 2 -3 12 4 23 15 20 20 20 20 -67
147 -81 120 -88 127 -120 127 -18 0 -33 -2 -33 -6z"/>
<path d="M7059 7827 c-71 -88 -102 -128 -161 -206 -29 -38 -35 -66 -18 -76 6
-4 18 -1 27 7 27 21 263 321 263 332 0 6 -9 17 -19 23 -17 11 -27 2 -92 -80z"/>
<path d="M6496 7851 c-4 -5 -2 -12 3 -15 5 -4 12 -2 15 3 4 5 2 12 -3 15 -5 4
-12 2 -15 -3z"/>
<path d="M3730 7835 c0 -8 5 -15 10 -15 6 0 10 7 10 15 0 8 -4 15 -10 15 -5 0
-10 -7 -10 -15z"/>
<path d="M8049 7711 c-37 -37 -38 -73 -3 -100 37 -29 78 -27 103 5 38 48 22
89 -42 113 -25 10 -32 8 -58 -18z"/>
<path d="M7147 7628 c-78 -83 -147 -170 -147 -185 0 -6 6 -16 14 -22 11 -10
33 9 114 101 63 72 102 126 107 146 11 51 -12 40 -88 -40z"/>
<path d="M1867 7683 c-14 -13 -6 -28 23 -45 26 -15 30 -15 30 -2 0 38 -34 67
-53 47z"/>
<path d="M8380 7671 c0 -12 6 -21 15 -21 8 0 15 4 15 9 0 5 -7 14 -15 21 -13
10 -15 9 -15 -9z"/>
<path d="M3070 7604 c0 -18 17 -46 48 -82 26 -30 59 -69 73 -86 23 -26 29 -29
43 -17 21 17 20 32 -1 57 -10 10 -44 49 -77 87 -63 72 -86 83 -86 41z"/>
<path d="M1772 7564 c-7 -13 4 -24 64 -55 80 -42 84 -44 84 -29 0 12 -111 100
-127 100 -7 0 -16 -7 -21 -16z"/>
<path d="M8456 7548 c-11 -43 -4 -48 29 -24 16 12 17 16 6 30 -18 22 -28 20
-35 -6z"/>
<path d="M2960 7465 c-14 -17 14 -57 99 -139 l50 -49 12 27 c12 26 10 30 -52
92 -77 79 -93 89 -109 69z"/>
<path d="M7178 7405 c-34 -36 -64 -69 -66 -73 -1 -5 4 -16 11 -26 12 -17 18
-13 78 49 61 63 79 103 52 112 -6 2 -40 -26 -75 -62z"/>
<path d="M1700 7446 c0 -17 118 -79 132 -70 11 7 -99 84 -119 84 -7 0 -13 -6
-13 -14z"/>
<path d="M8528 7400 c-55 -37 -71 -54 -66 -74 4 -20 139 63 135 83 -4 25 -22
22 -69 -9z"/>
<path d="M1670 7380 c0 -5 9 -10 21 -10 11 0 17 5 14 10 -3 6 -13 10 -21 10
-8 0 -14 -4 -14 -10z"/>
<path d="M2768 7352 c-23 -5 -23 -39 0 -51 23 -12 38 -2 39 26 2 23 -12 32
-39 25z"/>
<path d="M7288 7283 c-38 -38 -68 -76 -68 -85 0 -34 22 -29 68 15 27 24 54 46
61 48 8 3 11 19 9 47 l-3 43 -67 -68z"/>
<path d="M2896 7295 c-9 -24 1 -39 58 -88 40 -34 56 -43 65 -34 6 6 11 16 11
22 0 20 -99 115 -120 115 -4 0 -10 -7 -14 -15z"/>
<path d="M8590 7262 c-79 -57 -61 -70 30 -21 63 33 68 40 47 57 -9 8 -29 -2
-77 -36z"/>
<path d="M1775 7283 c-97 -11 -206 -57 -282 -119 -57 -46 -139 -174 -164 -254
-26 -82 -28 -205 -4 -286 68 -234 284 -387 521 -371 195 14 366 129 450 302
136 281 -6 603 -311 703 -60 20 -154 31 -210 25z m-27 -74 c-2 -6 -32 -23 -67
-37 -168 -67 -296 -276 -277 -453 17 -165 125 -299 294 -364 68 -27 91 -45 57
-45 -36 0 -143 44 -195 81 -143 100 -225 303 -186 457 44 170 131 279 276 346
58 27 104 34 98 15z m-28 -139 c0 -10 -3 -13 -76 -69 -36 -27 -61 -58 -85
-105 -19 -36 -40 -66 -46 -66 -7 0 -13 4 -13 9 0 20 30 92 55 129 42 64 165
140 165 102z m130 -75 l0 -84 -33 1 c-48 2 -92 -28 -122 -83 -14 -26 -33 -50
-43 -52 -12 -3 -11 -5 6 -6 16 -1 22 -7 22 -23 0 -31 33 -83 65 -104 61 -40
126 -32 183 20 74 67 69 153 -15 226 -46 40 -54 52 -44 69 18 29 114 -37 147
-101 22 -42 25 -115 7 -159 -19 -49 -95 -117 -139 -125 -33 -6 -34 -7 -34 -58
0 -57 -5 -67 -26 -59 -8 3 -14 20 -15 42 -2 59 -11 76 -43 78 -16 1 -45 15
-65 31 -116 92 -102 271 27 335 26 14 52 22 59 20 8 -3 14 16 19 56 5 50 10
61 25 61 17 0 19 -9 19 -85z m400 -60 c22 -45 25 -62 25 -165 0 -112 -1 -118
-35 -185 -34 -67 -62 -97 -76 -82 -4 4 5 29 19 55 67 123 81 268 34 360 -32
63 -33 75 -9 70 9 -2 28 -25 42 -53z m-98 -225 c-7 -53 -59 -146 -99 -178 -65
-51 -74 -36 -19 31 39 47 86 136 86 162 0 10 6 15 18 13 12 -2 16 -11 14 -28z
m-602 -80 c27 -52 88 -113 140 -140 38 -19 51 -42 31 -54 -11 -7 -118 63 -147
95 -34 38 -64 92 -64 117 0 34 17 26 40 -18z"/>
<path d="M2622 7247 c33 -27 88 -60 88 -53 0 3 -21 21 -46 41 -51 38 -87 49
-42 12z"/>
<path d="M2522 7157 c-14 -16 22 -47 182 -161 128 -91 129 -92 146 -71 11 13
11 18 -1 30 -27 27 -294 215 -305 215 -6 0 -16 -6 -22 -13z"/>
<path d="M2842 7147 c-9 -10 -2 -21 30 -48 23 -19 46 -34 52 -34 22 0 11 22
-29 58 -34 30 -45 35 -53 24z"/>
<path d="M7364 7131 c-17 -16 -38 -31 -45 -34 -11 -3 -11 -7 -2 -17 9 -10 20
-5 52 21 23 18 41 38 41 46 0 20 -12 16 -46 -16z"/>
<path d="M7847 7101 c-109 -67 -318 -212 -359 -249 -26 -23 -28 -52 -4 -52 6
0 85 51 176 113 237 161 299 207 311 228 18 35 -22 22 -124 -40z"/>
<path d="M7519 7058 c-133 -94 -138 -98 -120 -126 10 -16 43 3 165 97 44 34
84 61 88 61 4 0 8 5 8 10 0 6 -15 10 -33 10 -24 0 -54 -15 -108 -52z"/>
<path d="M8350 7088 c-36 -5 -135 -12 -220 -16 -94 -4 -154 -11 -154 -17 1 -5
5 -50 8 -100 4 -49 12 -142 17 -205 6 -63 14 -214 18 -335 3 -121 10 -226 14
-232 6 -10 55 -13 189 -13 l181 0 -6 236 c-3 130 -8 238 -11 241 -3 3 -71 6
-150 7 -79 1 -147 4 -150 7 -3 3 -13 62 -21 130 -8 68 -17 143 -20 167 l-5 42
77 0 c41 0 134 7 205 16 71 9 132 13 136 10 4 -4 6 -97 6 -207 -1 -190 -1
-199 16 -184 11 10 20 12 24 6 7 -10 -23 -31 -43 -31 -6 0 -11 9 -11 20 0 13
-7 20 -20 20 -16 0 -20 -7 -20 -32 0 -43 13 -63 35 -54 10 3 57 9 106 12 112
8 174 -6 227 -52 38 -32 102 -140 102 -171 0 -7 5 -13 11 -13 9 0 10 76 6 295
-6 266 -8 298 -26 333 -28 54 -82 98 -143 117 -58 17 -267 19 -378 3z"/>
<path d="M2370 7084 c0 -3 16 -25 36 -49 21 -27 101 -88 199 -154 147 -99 165
-108 170 -90 9 27 -5 42 -95 103 -97 66 -300 196 -306 196 -2 0 -4 -3 -4 -6z"/>
<path d="M7830 6874 c-66 -35 -283 -187 -288 -201 -10 -31 32 -20 114 29 146
88 223 142 227 159 9 33 -8 37 -53 13z"/>
<path d="M2427 6803 c3 -21 6 -38 7 -39 18 -16 232 -137 244 -138 10 0 18 7
20 19 2 17 -21 35 -115 95 -65 40 -128 80 -140 88 -22 13 -22 13 -16 -25z"/>
<path d="M8966 6795 c-3 -8 -1 -15 4 -15 6 0 10 7 10 15 0 8 -2 15 -4 15 -2 0
-6 -7 -10 -15z"/>
<path d="M7777 6652 c-54 -31 -116 -67 -138 -80 -36 -22 -53 -52 -29 -52 12 0
195 105 253 145 37 26 48 45 25 45 -7 0 -57 -26 -111 -58z"/>
<path d="M8980 6660 c-10 -19 -9 -21 12 -18 13 2 23 9 23 17 0 23 -23 24 -35
1z"/>
<path d="M2420 6615 c0 -15 52 -53 142 -103 63 -35 78 -39 78 -19 0 12 -194
137 -213 137 -4 0 -7 -7 -7 -15z"/>
<path d="M9013 6550 c-33 -13 -28 -30 7 -30 23 0 30 4 30 20 0 22 -4 23 -37
10z"/>
<path d="M7855 6514 c-11 -8 -62 -37 -112 -65 -90 -48 -105 -65 -85 -95 4 -7
47 12 122 55 98 56 115 70 118 94 4 31 -12 35 -43 11z"/>
<path d="M2356 6463 c-9 -23 7 -35 129 -94 97 -47 114 -49 115 -14 0 11 -208
125 -228 125 -5 0 -13 -8 -16 -17z"/>
<path d="M1181 6446 c-10 -12 -4 -18 35 -36 51 -22 77 -20 68 4 -5 14 -62 46
-82 46 -5 0 -15 -6 -21 -14z"/>
<path d="M9028 6419 c-35 -18 -56 -58 -24 -46 8 3 33 11 55 18 29 9 41 17 39
28 -5 23 -28 23 -70 0z"/>
<path d="M2272 6342 l-24 -18 24 -16 c36 -23 259 -128 273 -128 21 0 25 27 7
43 -13 11 -178 99 -252 134 -3 1 -16 -6 -28 -15z"/>
<path d="M7788 6292 c-91 -43 -98 -48 -98 -75 0 -19 4 -27 13 -24 6 3 54 24
105 47 85 39 92 45 92 71 0 16 -3 29 -7 28 -5 0 -52 -21 -105 -47z"/>
<path d="M1136 6303 c-11 -11 -6 -43 7 -43 6 0 95 -22 197 -49 102 -27 246
-63 320 -81 123 -29 606 -183 774 -246 56 -22 70 -24 77 -13 19 32 -27 53
-381 176 -222 77 -482 147 -605 163 -38 5 -80 12 -92 15 -13 3 -31 7 -40 9
-10 2 -58 17 -108 34 -116 37 -141 43 -149 35z"/>
<path d="M9117 6294 c-3 -3 -20 -8 -39 -11 -18 -3 -42 -10 -53 -16 -11 -6 -99
-13 -195 -17 l-175 -5 -125 -62 c-192 -94 -204 -97 -398 -91 -163 5 -166 5
-189 -18 -31 -31 -29 -65 6 -103 47 -50 108 -35 137 36 l15 34 73 -7 c118 -11
216 14 376 93 l135 67 110 -3 c98 -2 121 1 227 30 92 26 118 37 118 51 0 18
-13 31 -23 22z"/>
<path d="M2100 6196 c0 -17 415 -194 427 -182 10 9 -6 36 -24 43 -72 25 -202
78 -276 112 -93 43 -127 50 -127 27z"/>
<path d="M1105 6153 c-10 -28 -4 -32 68 -53 39 -12 191 -62 337 -110 312 -104
569 -184 695 -217 50 -13 129 -34 177 -48 101 -29 128 -31 128 -10 0 19 -19
27 -148 59 -55 14 -250 75 -434 135 -324 106 -536 174 -725 230 -76 23 -93 26
-98 14z"/>
<path d="M9065 6125 c-44 -13 -90 -24 -102 -25 -26 0 -27 -3 -12 -31 7 -14 16
-18 27 -14 9 4 57 17 106 30 49 14 90 26 93 28 7 8 -9 37 -21 36 -6 0 -47 -11
-91 -24z"/>
<path d="M7758 6067 c-27 -7 -38 -16 -38 -30 0 -16 5 -18 33 -12 38 9 57 22
57 41 0 16 0 16 -52 1z"/>
<path d="M8740 6040 c-23 -7 -133 -41 -395 -121 -55 -16 -107 -32 -115 -34
-37 -9 -116 -38 -127 -47 -7 -6 -13 -18 -13 -28 0 -17 4 -17 48 -5 55 14 303
87 513 151 81 24 156 44 168 44 24 0 25 4 11 31 -11 20 -45 24 -90 9z"/>
<path d="M1077 6001 c-4 -16 1 -23 18 -27 30 -7 57 -2 62 12 2 7 -7 14 -21 18
-13 3 -31 8 -39 12 -9 3 -16 -3 -20 -15z"/>
<path d="M9165 6005 c-5 -2 -43 -13 -83 -25 -40 -12 -70 -25 -67 -31 9 -13 32
-11 114 7 57 13 71 20 71 35 0 18 -12 22 -35 14z"/>
<path d="M1252 5928 c-71 -20 -95 -122 -43 -180 25 -28 36 -33 74 -33 57 0 97
28 116 81 12 36 12 44 -4 78 -24 50 -81 72 -143 54z m38 -77 c0 -26 -16 -35
-24 -15 -10 25 -7 34 9 34 8 0 15 -9 15 -19z"/>
<path d="M7765 5908 c-52 -29 -36 -54 24 -38 31 8 41 16 39 28 -4 21 -36 26
-63 10z"/>
<path d="M1050 5854 c0 -8 5 -12 10 -9 6 3 10 10 10 16 0 5 -4 9 -10 9 -5 0
-10 -7 -10 -16z"/>
<path d="M9175 5860 c-16 -4 -42 -11 -57 -14 -17 -4 -28 -13 -28 -23 0 -14 9
-15 62 -9 67 7 84 16 75 40 -7 18 -9 18 -52 6z"/>
<path d="M8908 5743 l-3 -108 -55 -8 c-233 -33 -406 -277 -360 -510 33 -171
181 -321 356 -360 l59 -13 5 -59 c5 -57 5 -58 38 -60 l32 -3 0 64 c0 64 0 64
28 64 16 0 55 9 87 20 332 114 418 520 159 749 -74 66 -151 101 -249 115 -18
3 -20 12 -23 109 l-3 107 -34 0 -34 0 -3 -107z m223 -229 c69 -38 129 -102
163 -174 27 -57 31 -76 31 -150 0 -72 -4 -94 -29 -147 -45 -99 -155 -189 -254
-209 l-32 -6 0 53 0 54 66 34 c76 39 117 88 139 166 13 45 13 57 0 109 -23 89
-72 146 -160 188 -44 20 -50 27 -53 57 -5 54 3 64 46 56 20 -4 58 -18 83 -31z
m-231 -89 c0 -17 -5 -25 -18 -25 -10 0 -39 -14 -66 -30 -52 -33 -96 -109 -96
-166 0 -30 3 -32 45 -38 28 -5 49 -14 55 -25 9 -17 4 -19 -57 -20 -77 -2 -83
4 -83 70 0 101 53 189 142 233 65 32 78 33 78 1z m144 -15 c139 -52 196 -214
120 -337 -79 -128 -270 -152 -354 -46 l-22 28 25 3 c14 2 41 -5 59 -14 126
-66 284 53 247 188 -13 51 -71 111 -123 128 -35 11 -42 23 -30 54 8 20 12 20
78 -4z m-160 -85 c-4 -8 -10 -15 -15 -15 -5 0 -21 -18 -35 -40 -30 -46 -53
-36 -28 11 22 44 93 83 78 44z"/>
<path d="M8760 5832 c-14 -2 -106 -23 -205 -47 -164 -40 -339 -82 -685 -163
-109 -25 -125 -32 -128 -51 -2 -11 2 -21 8 -21 52 0 724 158 1008 236 69 19
71 56 2 46z"/>
<path d="M1562 5811 c2 -9 24 -23 53 -32 140 -46 493 -142 680 -184 237 -53
217 -51 213 -24 -3 22 -19 28 -208 76 -734 189 -743 191 -738 164z"/>
<path d="M1037 5763 c-17 -16 -5 -33 23 -33 32 0 37 9 18 28 -13 13 -31 16
-41 5z"/>
<path d="M7835 5765 c-5 -2 -29 -9 -52 -15 -32 -8 -43 -16 -43 -30 0 -24 -5
-24 78 -4 79 20 74 17 66 38 -6 15 -26 19 -49 11z"/>
<path d="M1488 5678 c-3 -36 -3 -36 -128 -64 -100 -22 -161 -56 -241 -134 -76
-76 -120 -156 -144 -265 l-17 -75 -39 0 -39 0 0 -60 0 -60 38 0 39 0 13 -57
c16 -76 67 -176 122 -240 77 -93 175 -150 305 -178 80 -17 82 -18 85 -49 3
-28 7 -31 41 -34 l37 -3 0 40 c0 41 0 41 38 41 82 0 252 81 310 149 82 95 151
234 152 304 0 25 3 27 45 27 l45 0 0 60 0 60 -40 0 c-35 0 -40 3 -45 28 -49
252 -227 432 -452 459 -51 6 -52 6 -55 42 -3 32 -6 36 -35 39 -29 3 -32 1 -35
-30z m43 -130 c1 -18 1 -52 0 -75 -1 -41 0 -43 30 -43 43 0 130 -44 186 -94
61 -55 98 -122 113 -204 26 -146 -60 -300 -208 -373 -38 -19 -63 -24 -137 -24
-82 0 -96 3 -158 33 -82 40 -154 121 -187 209 -44 117 -9 245 94 349 61 61
121 92 194 101 l47 5 -3 74 c-3 62 -1 74 12 74 11 0 16 -10 17 -32z m-301 -53
c10 -12 10 -18 0 -30 -16 -19 -39 -19 -46 0 -6 15 11 45 26 45 4 0 13 -7 20
-15z m620 -20 c0 -19 -16 -27 -40 -20 -22 7 -26 25 -8 43 14 14 48 -2 48 -23z
m-810 -387 c0 -15 -9 -18 -50 -18 -36 0 -50 4 -50 14 0 18 16 24 63 23 28 -1
37 -5 37 -19z m1031 12 c33 -18 21 -30 -31 -30 -27 0 -50 2 -50 4 0 2 -3 11
-6 20 -5 13 1 16 31 16 20 0 45 -5 56 -10z m-843 -372 c16 -16 15 -23 -4 -43
-19 -18 -44 -4 -44 25 0 31 26 40 48 18z m620 -14 c2 -11 -4 -26 -12 -33 -12
-10 -17 -8 -26 9 -6 12 -9 28 -6 37 8 21 40 12 44 -13z m-315 -58 c7 -43 -1
-76 -19 -76 -10 0 -14 15 -14 53 0 76 22 91 33 23z"/>
<path d="M1484 5388 c-12 -5 -27 -21 -33 -35 -15 -32 7 -70 45 -79 23 -6 21
-8 -24 -23 -71 -24 -97 -44 -121 -94 -42 -86 -17 -183 61 -234 87 -58 211 -26
258 67 51 101 -6 236 -109 256 -39 8 -40 26 -1 41 38 14 41 53 5 88 -26 27
-47 30 -81 13z"/>
<path d="M1190 5113 c-27 -35 -22 -70 13 -91 25 -15 30 -15 55 -2 36 20 42 70
13 99 -28 28 -55 26 -81 -6z"/>
<path d="M1742 5120 c-27 -26 -28 -64 -2 -90 24 -24 43 -25 75 -4 29 19 33 58
9 92 -19 28 -53 28 -82 2z"/>
<path d="M1470 4860 c-36 -36 -16 -89 33 -91 69 -4 103 24 86 69 -6 15 -16 30
-22 34 -23 15 -77 8 -97 -12z"/>
<path d="M1020 5614 c0 -9 7 -14 17 -12 25 5 28 28 4 28 -12 0 -21 -6 -21 -16z"/>
<path d="M8395 5548 c-252 -66 -298 -78 -340 -83 -22 -3 -56 -7 -75 -10 -66
-10 -145 -17 -195 -19 -39 -1 -50 -5 -53 -18 -5 -25 34 -24 278 12 367 54 456
76 506 124 21 20 35 36 33 35 -2 0 -71 -19 -154 -41z"/>
<path d="M2040 5492 c0 -24 45 -37 223 -63 234 -34 260 -35 255 -11 -2 13 -15
18 -48 20 -135 7 -347 37 -409 57 -12 3 -21 2 -21 -3z"/>
<path d="M8348 5369 c-26 -4 -69 -10 -95 -13 -27 -3 -124 -14 -218 -26 -93
-11 -174 -20 -178 -20 -5 0 -7 -10 -5 -22 3 -26 33 -30 120 -17 29 5 123 15
208 24 185 18 211 24 221 53 10 28 4 30 -53 21z"/>
<path d="M2124 5324 c3 -9 6 -19 6 -24 0 -8 61 -17 181 -26 54 -5 78 -3 84 6
14 23 -17 35 -118 47 -145 17 -160 16 -153 -3z"/>
<path d="M8022 5133 c-101 -3 -113 -6 -110 -21 3 -13 17 -18 73 -22 67 -5 69
-6 77 -36 7 -29 72 -104 90 -104 22 0 88 74 94 106 6 31 9 34 40 34 22 0 37 6
41 15 3 9 4 17 2 19 -8 7 -197 12 -307 9z"/>
<path d="M2232 5113 c4 -23 86 -32 99 -11 16 24 9 28 -47 28 -47 0 -55 -3 -52
-17z"/>
<path d="M8373 5013 c-18 -7 -16 -23 2 -23 8 0 15 7 15 15 0 8 -1 15 -2 14 -2
0 -9 -3 -15 -6z"/>
<path d="M2138 4886 l-5 -24 95 3 c52 2 96 6 99 9 3 3 3 12 0 21 -5 12 -24 15
-96 15 -86 0 -89 -1 -93 -24z"/>
<path d="M7926 4894 c-9 -22 -8 -23 55 -29 29 -4 60 -8 67 -10 18 -6 15 8 -8
33 -26 28 -104 32 -114 6z"/>
<path d="M8281 4881 c-12 -12 -21 -25 -21 -30 0 -15 46 -19 104 -9 66 12 81
33 28 42 -20 4 -49 9 -64 12 -19 4 -33 -1 -47 -15z"/>
<path d="M8523 4788 c-20 -21 -33 -48 -38 -75 -7 -42 -7 -43 -56 -49 -48 -6
-49 -7 -49 -40 0 -31 2 -34 28 -32 33 2 52 -8 52 -28 0 -10 -12 -14 -39 -14
-36 0 -40 -3 -46 -31 -9 -40 6 -56 39 -41 28 13 36 7 36 -26 0 -22 -3 -24 -35
-18 l-35 7 0 -41 c0 -43 2 -45 30 -30 10 5 32 7 49 4 l31 -6 0 -309 0 -308
-32 -17 c-82 -41 -123 -109 -121 -202 1 -51 6 -72 29 -109 56 -89 163 -138
249 -115 66 17 122 59 153 111 36 60 37 155 4 218 -22 42 -87 103 -109 103
-10 0 -13 69 -13 329 l0 329 25 16 c30 20 33 56 5 63 -11 3 -20 14 -20 24 0
10 9 23 20 29 12 6 20 21 20 35 0 18 -5 25 -20 25 -26 0 -26 21 0 50 25 29 21
44 -13 48 -19 2 -27 9 -27 23 0 37 -50 109 -75 109 -6 0 -25 -15 -42 -32z m57
-554 c0 -432 -2 -494 -15 -494 -13 0 -15 61 -15 493 0 272 3 497 6 500 4 4 11
4 15 1 5 -3 9 -228 9 -500z m-92 289 c-1 -131 -2 -133 -7 -48 -6 88 -3 185 5
185 2 0 3 -62 2 -137z m-18 -871 c0 -4 -7 -17 -14 -28 -8 -12 -20 -42 -27 -67
-6 -26 -15 -47 -20 -47 -13 0 -11 67 2 93 22 43 59 73 59 49z"/>
<path d="M2240 4750 c-52 -11 -111 -21 -130 -25 -34 -5 -86 -33 -78 -41 2 -2
57 5 121 16 64 11 120 20 124 18 4 -1 25 2 46 7 26 5 37 12 35 23 -4 22 -12
22 -118 2z"/>
<path d="M7894 4756 c-4 -9 -4 -19 -1 -23 3 -3 57 -12 119 -19 246 -32 263
-33 270 -21 8 13 4 14 -202 47 -74 12 -145 24 -157 27 -15 3 -25 0 -29 -11z"/>
<path d="M9225 4690 c-4 -6 -3 -16 3 -22 6 -6 12 -6 17 2 4 6 3 16 -3 22 -6 6
-12 6 -17 -2z"/>
<path d="M2055 4524 c-375 -96 -609 -154 -643 -158 -33 -4 -49 -23 -34 -38 10
-10 59 -2 230 36 119 26 273 62 342 80 69 19 205 53 303 77 97 23 177 48 177
54 0 14 -21 35 -34 34 -6 0 -159 -39 -341 -85z"/>
<path d="M7835 4590 c-10 -11 -16 -22 -13 -25 5 -6 333 -79 391 -88 29 -4 39
-2 44 9 11 30 -4 35 -277 94 -57 12 -109 24 -115 27 -6 2 -20 -5 -30 -17z"/>
<path d="M9100 4576 c0 -9 15 -19 38 -25 48 -14 112 -14 112 -1 0 14 -34 26
-97 35 -44 6 -53 4 -53 -9z"/>
<path d="M1020 4565 c0 -12 7 -15 25 -13 14 2 26 8 26 13 0 6 -12 11 -26 13
-18 2 -25 -1 -25 -13z"/>
<path d="M8919 4466 c-35 -20 -59 -59 -59 -94 0 -16 -3 -50 -6 -75 -6 -40 -10
-47 -35 -52 l-29 -7 0 -92 c0 -87 2 -94 26 -117 14 -13 44 -31 67 -40 33 -13
43 -22 45 -43 3 -21 8 -26 33 -26 24 0 29 4 29 23 0 19 11 29 52 48 73 34 87
58 95 160 l6 86 -31 11 c-29 10 -30 11 -33 91 -4 71 -7 84 -30 107 -32 31 -93
41 -130 20z m-39 -270 c0 -61 -32 -60 -45 2 -6 30 -5 32 19 32 23 0 26 -4 26
-34z m100 -7 c0 -33 -3 -40 -16 -35 -9 3 -20 6 -25 6 -10 0 -12 53 -2 63 3 4
15 7 25 7 14 0 18 -8 18 -41z m106 19 c-3 -13 -6 -29 -6 -35 0 -7 -11 -13 -24
-13 -20 0 -23 4 -19 23 9 43 12 47 34 47 17 0 20 -4 15 -22z m-220 -86 c6 -4
14 -27 18 -52 l7 -45 -25 25 c-30 30 -45 80 -25 80 8 0 19 -4 25 -8z m219 -19
c-7 -29 -32 -63 -47 -63 -14 0 -9 58 8 74 26 27 47 20 39 -11z m-107 -25 c-2
-30 -8 -43 -18 -43 -10 0 -16 13 -18 43 -3 37 -1 42 18 42 19 0 21 -5 18 -42z"/>
<path d="M1047 4463 c-13 -12 -7 -23 13 -23 11 0 20 7 20 15 0 15 -21 21 -33
8z"/>
<path d="M9206 4463 c-11 -11 -6 -23 9 -23 8 0 15 4 15 9 0 13 -16 22 -24 14z"/>
<path d="M2420 4435 c-19 -7 -128 -41 -242 -76 -121 -36 -208 -67 -208 -74 0
-38 27 -33 270 42 135 41 250 79 255 85 7 6 3 14 -9 24 -23 17 -22 17 -66 -1z"/>
<path d="M7773 4439 c-22 -22 -14 -36 25 -47 32 -8 145 -41 507 -148 98 -29
97 -29 93 -2 -4 28 -69 50 -598 205 -8 2 -21 -2 -27 -8z"/>
<path d="M1174 4380 c-11 -4 -29 -21 -39 -36 -52 -80 23 -164 112 -124 116 52
45 208 -73 160z"/>
<path d="M1060 4331 c0 -12 5 -21 10 -21 6 0 10 6 10 14 0 8 -4 18 -10 21 -5
3 -10 -3 -10 -14z"/>
<path d="M9180 4321 c0 -11 5 -23 10 -26 6 -3 10 -2 10 4 0 5 3 16 6 25 4 11
1 16 -10 16 -9 0 -16 -8 -16 -19z"/>
<path d="M2323 4245 c-168 -55 -183 -62 -183 -84 0 -21 3 -23 35 -17 60 12
358 121 362 133 2 6 -4 16 -14 20 -13 6 -72 -9 -200 -52z"/>
<path d="M7722 4298 c-20 -20 -14 -35 16 -43 15 -3 68 -21 117 -40 50 -18 173
-59 275 -90 102 -32 191 -60 198 -63 7 -2 12 4 12 17 0 14 -10 25 -27 32 -23
9 -574 199 -578 199 0 0 -6 -5 -13 -12z"/>
<path d="M1745 4260 c-4 -6 5 -10 20 -10 15 0 24 4 20 10 -3 6 -12 10 -20 10
-8 0 -17 -4 -20 -10z"/>
<path d="M1805 4260 c3 -5 10 -10 16 -10 5 0 9 5 9 10 0 6 -7 10 -16 10 -8 0
-12 -4 -9 -10z"/>
<path d="M1614 4193 c-10 -48 -12 -49 -24 -15 -10 27 -17 33 -39 30 -22 -3
-26 -8 -27 -35 0 -41 -9 -50 -24 -24 -12 24 -52 28 -69 7 -10 -11 -10 -20 -1
-36 15 -28 5 -38 -18 -17 -25 23 -34 21 -62 -8 l-23 -25 23 -25 c30 -32 18
-44 -20 -21 l-30 17 -20 -33 c-25 -41 -25 -45 0 -60 30 -19 24 -36 -12 -40
-28 -2 -33 -7 -33 -28 0 -16 8 -28 23 -35 30 -13 28 -35 -4 -35 -22 0 -25 -4
-22 -27 2 -19 10 -29 28 -33 32 -7 40 -40 11 -40 -14 0 -21 -6 -21 -19 0 -25
24 -43 51 -39 12 2 24 -3 26 -9 3 -7 -2 -13 -10 -13 -29 0 -39 -26 -19 -50 16
-20 21 -21 40 -9 29 18 38 5 18 -25 -15 -24 -15 -26 2 -35 13 -7 22 -7 30 1 6
6 18 8 27 4 14 -5 15 -9 6 -20 -10 -11 -7 -18 11 -30 28 -20 58 -21 58 -1 0
17 25 20 35 5 3 -5 1 -10 -4 -10 -17 0 -13 -40 5 -47 9 -3 27 6 45 23 27 26
29 26 29 7 0 -11 7 -26 16 -34 22 -18 49 1 49 35 -1 15 5 26 12 26 7 0 13 -6
13 -13 0 -7 6 -21 13 -31 19 -25 59 -13 56 17 -3 48 1 53 24 25 18 -21 26 -25
45 -18 24 10 28 20 11 37 -18 18 10 27 38 12 22 -12 27 -11 39 6 12 16 12 21
-3 37 -21 23 -3 49 20 29 19 -15 44 -5 51 22 3 14 -1 25 -14 34 -28 20 -25 35
5 27 29 -7 55 10 55 37 0 12 -10 21 -25 25 -29 7 -28 29 1 29 31 1 44 14 44
46 0 26 -3 29 -30 29 -20 0 -30 5 -30 15 0 9 6 12 15 9 17 -7 45 12 45 30 0 7
-6 21 -14 31 -11 15 -17 17 -28 7 -17 -14 -28 -6 -28 20 0 11 7 18 20 18 26 0
26 24 0 61 l-21 28 -20 -20 c-16 -16 -24 -18 -32 -9 -9 9 -7 16 11 30 27 22
27 28 3 58 -22 25 -46 29 -55 7 -3 -8 -12 -15 -21 -15 -18 0 -19 4 -3 29 9 15
9 23 -1 35 -17 21 -61 21 -61 1 0 -8 -7 -15 -16 -15 -10 0 -14 6 -10 15 9 25
-5 45 -31 45 -16 0 -27 -7 -30 -20 -7 -25 -23 -26 -23 -2 0 25 -19 42 -47 42
-17 0 -24 -7 -29 -27z m92 -249 c51 -34 69 -106 44 -176 -11 -30 -23 -41 -57
-55 -24 -10 -43 -21 -43 -25 0 -3 -18 3 -40 13 -125 61 -96 258 38 259 18 0
44 -7 58 -16z m-155 -231 c36 -21 46 -53 29 -94 -23 -54 -79 -65 -124 -24 -34
32 -35 77 -1 110 29 29 56 31 96 8z m274 -8 c35 -34 34 -86 -1 -114 -60 -47
-134 -6 -124 69 3 25 52 70 77 70 13 0 35 -11 48 -25z"/>
<path d="M2435 4130 c-49 -20 -124 -50 -165 -66 -41 -15 -79 -31 -85 -36 -5
-4 -17 -8 -26 -8 -21 0 -70 -39 -50 -40 30 0 431 164 431 177 0 17 -1 17 -105
-27z"/>
<path d="M7712 4148 c5 -14 250 -116 281 -117 45 -2 -8 33 -68 45 -5 1 -52 20
-103 43 -99 44 -116 48 -110 29z"/>
<path d="M1123 4085 c-3 -9 -3 -19 1 -22 8 -9 56 14 56 27 0 16 -50 12 -57 -5z"/>
<path d="M2430 3977 c-219 -101 -295 -143 -298 -166 -2 -11 2 -21 8 -21 7 0
108 47 226 104 168 82 213 108 208 120 -3 9 -11 16 -18 16 -6 0 -63 -24 -126
-53z"/>
<path d="M7687 4023 c-23 -22 -12 -29 197 -129 24 -11 31 -12 38 -2 17 27 9
33 -142 100 -97 44 -85 40 -93 31z"/>
<path d="M8104 3976 c-67 -30 -93 -105 -58 -165 50 -84 178 -76 221 14 44 93
-66 195 -163 151z m44 -83 c-2 -10 -10 -18 -18 -18 -8 0 -16 8 -18 18 -2 12 3
17 18 17 15 0 20 -5 18 -17z"/>
<path d="M1140 3961 c0 -6 5 -13 10 -16 6 -3 10 1 10 9 0 9 -4 16 -10 16 -5 0
-10 -4 -10 -9z"/>
<path d="M9081 3911 c-10 -7 -10 -10 -1 -16 6 -4 16 -3 22 3 13 13 -4 23 -21
13z"/>
<path d="M2405 3774 c-306 -165 -317 -172 -304 -196 6 -10 14 -18 17 -16 14 6
518 267 531 276 6 3 -21 52 -28 51 -3 0 -100 -52 -216 -115z"/>
<path d="M7612 3859 c-7 -12 -12 -23 -10 -24 6 -6 541 -289 572 -303 24 -11
31 -11 37 0 4 7 3 18 -2 24 -14 17 -562 324 -578 324 -3 0 -12 -9 -19 -21z"/>
<path d="M8888 3804 c-10 -3 -18 -10 -18 -15 0 -6 -10 -8 -22 -4 -20 5 -19 3
7 -19 30 -26 54 -31 135 -26 52 2 80 15 80 34 0 8 -8 17 -17 21 -24 9 -143 15
-165 9z"/>
<path d="M2680 3730 c-29 -21 -257 -153 -380 -220 -103 -55 -140 -80 -140 -91
0 -4 26 1 58 12 31 11 68 23 81 25 49 10 441 244 441 263 0 23 -35 29 -60 11z"/>
<path d="M7516 3723 c-9 -21 -13 -18 144 -113 201 -123 295 -170 337 -170 23
0 33 4 27 9 -18 19 -477 291 -490 291 -6 0 -15 -8 -18 -17z"/>
<path d="M8995 3650 c-3 -5 1 -10 10 -10 9 0 13 5 10 10 -3 6 -8 10 -10 10 -2
0 -7 -4 -10 -10z"/>
<path d="M2781 3620 c-19 -16 -32 -32 -29 -36 9 -8 78 39 78 54 0 18 -11 14
-49 -18z"/>
<path d="M7420 3630 c0 -5 28 -28 63 -51 l62 -42 -50 52 c-46 48 -75 64 -75
41z"/>
<path d="M2885 3548 c-48 -38 -109 -88 -150 -123 -16 -14 -43 -36 -60 -49 -52
-42 -21 -37 41 7 34 23 83 57 110 76 75 52 134 101 134 112 0 19 -36 7 -75
-23z"/>
<path d="M7297 3574 c-4 -4 -7 -11 -7 -16 0 -11 224 -178 238 -178 31 0 2 32
-99 110 -118 91 -122 94 -132 84z"/>
<path d="M2543 3457 c-68 -45 -123 -87 -123 -94 0 -22 16 -15 97 42 43 31 97
68 121 83 36 23 57 53 35 51 -5 0 -63 -37 -130 -82z"/>
<path d="M7565 3523 c52 -49 219 -163 240 -163 33 0 -85 86 -214 157 -35 20
-41 21 -26 6z"/>
<path d="M8935 3519 c-8 -23 -1 -34 14 -24 13 8 15 45 2 45 -5 0 -13 -9 -16
-21z"/>
<path d="M3020 3471 c-175 -138 -333 -266 -368 -299 -38 -35 -42 -43 -32 -61
11 -21 12 -20 59 16 26 21 121 99 211 173 89 74 169 140 176 146 17 14 18 28
2 42 -10 7 -23 3 -48 -17z"/>
<path d="M7175 3473 c-5 -14 6 -30 47 -66 58 -53 179 -147 189 -147 14 0 18
31 8 48 -13 20 -199 169 -221 177 -9 4 -18 -1 -23 -12z"/>
<path d="M1370 3415 c0 -18 33 -65 45 -65 22 0 18 29 -7 51 -23 18 -38 24 -38
14z"/>
<path d="M1835 3363 c-85 -43 -82 -40 -63 -59 14 -14 19 -13 57 11 23 14 53
30 66 35 24 9 34 34 18 43 -5 3 -39 -11 -78 -30z"/>
<path d="M8870 3375 c-6 -8 -8 -20 -4 -26 5 -9 11 -7 21 6 23 33 9 51 -17 20z"/>
<path d="M2999 3235 c-79 -76 -145 -140 -147 -141 -2 -1 6 -12 18 -24 l22 -22
139 138 c132 133 137 140 125 163 -13 23 -15 22 -157 -114z"/>
<path d="M7089 3339 c-10 -20 1 -34 129 -162 l140 -140 8 38 7 39 -119 113
c-144 137 -149 140 -165 112z"/>
<path d="M7942 3319 l-15 -39 -114 0 c-119 0 -132 -6 -90 -41 20 -17 43 -18
288 -19 192 0 268 -3 277 -12 9 -9 12 -102 12 -355 0 -222 4 -343 10 -343 6 0
10 4 10 10 0 5 14 24 31 41 17 18 29 38 26 48 -12 43 -12 45 11 47 33 2 51 22
32 34 -8 5 -25 10 -38 10 -13 0 -20 4 -17 10 6 10 82 7 92 -4 4 -3 12 -1 20 5
10 9 13 59 13 225 l0 213 -47 27 c-27 15 -71 42 -100 61 -28 19 -64 38 -80 42
-22 6 -29 14 -33 41 l-5 34 -134 2 -134 1 -15 -38z m218 -28 c0 -18 -111 -28
-147 -13 -12 5 2 9 42 13 98 9 105 9 105 0z m246 -147 c18 -14 18 -14 -6 -3
-31 14 -36 19 -24 19 6 0 19 -7 30 -16z m7 -38 c38 -24 28 -31 -12 -9 -17 10
-31 25 -31 33 0 9 3 11 8 5 4 -6 20 -19 35 -29z m25 -76 c3 -8 -7 -5 -24 9
-27 21 -29 21 -35 4 -6 -14 -8 -12 -8 9 l-1 28 32 -18 c17 -10 34 -24 36 -32z
m-8 -30 c26 -16 4 -21 -26 -5 -23 12 -25 15 -9 15 11 0 27 -4 35 -10z m-22
-36 c44 -21 41 -38 -3 -17 -19 9 -35 20 -35 25 0 11 2 10 38 -8z m1 -55 c17
-6 31 -15 31 -20 0 -11 0 -11 -39 2 -17 6 -31 15 -31 20 0 11 0 11 39 -2z m12
-59 c10 0 19 -4 19 -9 0 -6 -12 -6 -29 -1 -16 4 -32 6 -35 2 -3 -3 -6 0 -6 7
0 8 6 11 16 7 9 -3 24 -6 35 -6z m9 -50 c11 -7 5 -8 -20 -4 -43 8 -51 14 -19
14 13 0 31 -5 39 -10z m16 -47 c-10 -10 -46 -14 -46 -5 0 4 12 9 27 10 14 1
23 -1 19 -5z"/>
<path d="M2592 3315 c-34 -29 -44 -53 -14 -36 35 21 54 40 50 52 -2 7 -16 1
-36 -16z"/>
<path d="M1543 3287 c-82 -41 -91 -50 -74 -75 6 -10 18 -7 52 16 24 16 68 42
96 58 108 59 43 60 -74 1z"/>
<path d="M2117 3294 c-4 -4 -7 -20 -7 -36 0 -25 -7 -31 -52 -52 l-53 -23 -33
30 -32 31 -41 -40 c-62 -59 -66 -71 -35 -103 l26 -28 -20 -46 c-19 -43 -24
-47 -55 -47 l-35 0 0 -71 0 -71 30 7 c26 6 32 2 50 -27 27 -44 25 -62 -7 -86
-25 -19 -26 -21 -11 -43 8 -13 31 -42 50 -63 l36 -40 32 27 c30 26 33 26 58
12 15 -8 39 -19 55 -25 22 -8 27 -15 27 -45 0 -40 17 -48 91 -43 43 3 44 4 47
40 3 34 7 38 57 58 l54 22 27 -21 c15 -12 31 -21 36 -21 14 0 97 92 98 107 0
7 -9 18 -20 25 -24 15 -25 33 -5 82 12 28 21 37 38 36 47 -4 48 -3 45 68 l-3
67 -36 3 c-34 3 -38 6 -50 49 -12 45 -12 47 16 69 l28 22 -30 39 c-17 21 -40
46 -52 57 -20 18 -21 18 -52 -8 -17 -15 -34 -25 -38 -24 -3 2 -24 12 -46 23
-53 26 -50 22 -50 58 l0 32 -65 3 c-36 2 -69 0 -73 -4z m150 -240 c72 -41 101
-132 68 -212 -32 -75 -86 -112 -164 -112 -90 0 -171 84 -171 178 0 83 55 152
136 171 48 11 78 5 131 -25z"/>
<path d="M8785 3256 c-16 -12 -17 -16 -6 -30 7 -9 17 -16 21 -16 6 0 30 44 30
55 0 10 -27 4 -45 -9z"/>
<path d="M1615 3165 c-38 -24 -74 -46 -80 -48 -6 -2 -5 -10 3 -20 12 -14 21
-10 87 36 41 29 75 58 75 65 0 18 -9 15 -85 -33z"/>
<path d="M3120 3093 c-103 -108 -180 -198 -180 -212 0 -4 6 -15 13 -24 13 -18
4 -27 270 267 31 35 31 36 14 60 -12 16 -22 8 -117 -91z"/>
<path d="M7510 2786 l0 -416 324 0 c237 0 325 3 328 12 2 6 2 24 0 39 l-4 27
-276 -1 c-153 -1 -283 2 -290 7 -11 7 -13 55 -11 240 1 159 -2 244 -10 274
-22 77 5 145 70 181 113 64 242 -13 244 -145 0 -38 -6 -60 -21 -81 -56 -76
-146 -96 -217 -48 l-37 26 2 -213 3 -213 297 -1 c218 -1 301 -4 312 -13 32
-26 36 20 36 372 l0 345 -242 6 c-134 3 -303 9 -375 12 l-133 6 0 -416z m613
92 c20 -26 20 -27 0 -60 -26 -45 -72 -51 -102 -12 -26 34 -27 54 0 83 28 30
75 25 102 -11z m-10 -193 c33 -31 36 -81 8 -116 -15 -19 -29 -24 -66 -24 -39
0 -51 5 -69 28 -21 26 -25 27 -119 27 -92 0 -97 1 -97 21 0 20 4 21 95 17 83
-3 96 -1 101 14 9 28 54 58 88 58 20 0 41 -9 59 -25z"/>
<path d="M8077 2860 c3 -11 11 -20 18 -20 8 0 11 8 8 20 -3 11 -11 20 -18 20
-8 0 -11 -8 -8 -20z"/>
<path d="M7012 3165 c-10 -21 -8 -28 15 -52 14 -16 91 -101 171 -190 80 -90
149 -163 154 -163 4 0 8 18 8 39 0 37 -10 50 -160 213 -88 95 -164 174 -169
176 -4 1 -13 -9 -19 -23z"/>
<path d="M8600 3163 c0 -5 29 -24 65 -44 45 -26 67 -33 74 -26 21 21 11 35
-38 56 -49 21 -101 28 -101 14z"/>
<path d="M7674 3136 c-32 -14 -66 -55 -78 -93 -19 -62 46 -155 118 -168 75
-14 146 50 146 133 0 38 -5 48 -50 92 -53 54 -79 61 -136 36z m85 -21 c98 -50
107 -166 17 -209 -50 -23 -72 -20 -113 17 -31 29 -37 41 -41 88 -4 53 -3 56
32 87 41 35 63 39 105 17z"/>
<path d="M7677 3073 c-31 -35 -16 -116 23 -128 51 -16 101 28 92 81 -8 50 -84
80 -115 47z"/>
<path d="M1680 3046 c-69 -40 -85 -55 -73 -67 12 -12 23 -7 82 44 42 35 36 49
-9 23z"/>
<path d="M8576 3035 c8 -20 74 -57 90 -51 23 9 16 21 -25 44 -45 26 -73 29
-65 7z"/>
<path d="M3297 3023 c-4 -3 -7 -11 -7 -17 0 -6 5 -5 12 2 6 6 9 14 7 17 -3 3
-9 2 -12 -2z"/>
<path d="M6940 3014 c0 -7 27 -34 35 -34 3 0 1 9 -5 20 -10 18 -30 28 -30 14z"/>
<path d="M2726 2989 c-40 -11 -65 -37 -72 -75 -9 -50 3 -82 39 -104 97 -59
203 30 153 128 -22 42 -73 64 -120 51z"/>
<path d="M3237 2961 c-35 -39 -46 -61 -29 -61 12 0 74 80 70 91 -2 6 -20 -7
-41 -30z"/>
<path d="M6980 2962 c0 -4 7 -18 16 -30 16 -23 37 -22 28 1 -5 15 -44 40 -44
29z"/>
<path d="M3298 2816 l-76 -104 22 -21 22 -20 72 101 c70 97 72 101 57 124 -8
13 -16 24 -18 24 -1 0 -36 -47 -79 -104z"/>
<path d="M6856 2888 c-14 -20 -12 -26 37 -95 42 -59 318 -437 369 -506 12 -16
15 -16 35 -2 l23 16 -24 37 c-13 21 -99 141 -191 267 -93 127 -180 247 -194
267 -30 44 -35 45 -55 16z"/>
<path d="M8570 2890 c0 -13 5 -20 13 -17 6 2 12 10 12 17 0 7 -6 15 -12 18 -8
2 -13 -5 -13 -18z"/>
<path d="M1670 2892 c0 -10 22 -32 32 -32 4 0 8 9 8 20 0 13 -7 20 -20 20 -11
0 -20 -4 -20 -8z"/>
<path d="M3025 2754 c-49 -64 -93 -122 -98 -129 -9 -16 30 -42 43 -28 4 4 50
59 100 122 73 90 90 118 83 130 -6 9 -16 17 -24 18 -8 1 -54 -50 -104 -113z"/>
<path d="M7097 2833 c-12 -11 -8 -31 8 -37 11 -4 15 1 15 19 0 24 -10 32 -23
18z"/>
<path d="M7197 2740 l-27 -17 73 -96 c99 -131 127 -161 138 -150 16 16 -11 74
-75 164 -34 48 -65 94 -71 102 -9 13 -13 13 -38 -3z"/>
<path d="M6710 2684 c-50 -70 -239 -257 -350 -346 -389 -311 -832 -484 -1230
-480 -286 3 -534 64 -800 197 -154 77 -383 232 -487 329 -37 34 -48 31 -33 -8
5 -15 10 -43 10 -62 0 -19 7 -45 16 -59 12 -18 13 -28 5 -44 -14 -26 -14 -64
1 -96 9 -19 8 -31 0 -48 -7 -12 -12 -47 -12 -77 0 -109 -5 -165 -19 -189 -7
-13 -11 -36 -8 -50 4 -17 -1 -38 -12 -55 -10 -15 -17 -36 -14 -45 2 -10 -5
-33 -16 -52 -12 -19 -21 -46 -21 -60 0 -14 -9 -34 -20 -44 -11 -10 -20 -28
-20 -40 0 -11 -7 -30 -15 -40 -8 -11 -37 -54 -64 -95 -27 -41 -58 -83 -70 -92
-11 -10 -21 -22 -21 -27 0 -25 351 -157 570 -215 395 -103 611 -131 1020 -131
318 0 440 10 680 56 443 85 936 266 1190 439 84 57 95 96 18 65 -24 -9 -48
-19 -54 -21 -36 -15 -161 422 -190 661 -4 33 -10 199 -13 369 l-6 308 -35 -48z"/>
<path d="M3373 2621 c-21 -32 -30 -56 -26 -70 3 -12 9 -21 13 -21 11 0 60 96
60 119 0 32 -12 25 -47 -28z"/>
<path d="M3143 2598 c-4 -7 -10 -134 -13 -283 l-5 -270 -44 -21 c-78 -38 -111
-127 -77 -208 14 -35 57 -71 91 -77 12 -3 21 -14 23 -27 4 -29 38 -48 58 -31
8 6 14 19 14 28 0 10 18 25 43 36 118 55 112 221 -10 284 -23 12 -23 12 -23
281 0 147 -3 275 -6 284 -7 19 -39 21 -51 4z m-35 -645 c-2 -5 -10 -21 -18
-36 -11 -22 -11 -37 -3 -69 11 -39 10 -40 -7 -22 -29 30 -33 65 -10 102 11 17
25 32 31 32 6 0 9 -3 7 -7z m126 -28 c22 -34 20 -59 -9 -92 l-24 -28 -1 73 c0
76 8 87 34 47z"/>
<path d="M6844 2559 c3 -13 9 -36 12 -51 4 -18 13 -28 25 -28 28 0 29 13 6 55
-26 45 -54 61 -43 24z"/>
<path d="M2766 2520 c-19 -23 -24 -38 -20 -56 6 -22 3 -24 -29 -24 -27 0 -37
5 -42 20 -7 23 -33 26 -61 6 -16 -13 -17 -18 -6 -35 17 -28 15 -44 -6 -62 -13
-11 -25 -13 -42 -7 -26 10 -25 10 -34 -19 -5 -16 -1 -28 17 -43 29 -25 26 -57
-5 -62 -26 -4 -46 -34 -33 -47 6 -6 22 -12 35 -14 29 -5 37 -29 15 -47 -8 -7
-15 -21 -15 -32 0 -16 6 -18 38 -16 36 3 37 2 37 -32 1 -19 4 -41 8 -48 12
-19 45 -14 57 8 17 31 58 26 66 -7 12 -56 16 -63 33 -63 25 0 41 20 41 52 0
22 5 28 23 28 12 0 39 11 59 25 42 29 54 31 61 11 6 -16 47 -10 47 6 0 5 -9
21 -20 35 -29 37 -26 61 8 65 35 4 43 45 12 73 -24 21 -26 48 -5 65 8 7 15 26
15 42 0 28 -2 30 -29 25 -15 -3 -33 -1 -40 6 -16 16 -13 44 6 51 15 6 14 10
-10 31 -32 30 -42 31 -60 4 -10 -13 -23 -19 -37 -17 -18 2 -26 14 -35 51 -7
26 -14 50 -17 53 -3 2 -17 -9 -32 -26z m82 -160 c65 -40 89 -120 58 -193 -23
-55 -51 -72 -116 -72 -94 0 -141 41 -148 129 -3 41 1 58 20 86 44 66 124 87
186 50z"/>
<path d="M2718 2313 c-16 -19 -30 -83 -17 -83 3 0 12 7 19 15 19 22 30 18 30
-11 0 -20 -4 -25 -22 -22 -30 4 -35 -25 -9 -51 38 -38 128 -22 150 26 17 37
13 67 -12 104 -20 30 -29 34 -73 37 -38 3 -53 -1 -66 -15z"/>
<path d="M2364 2418 c-91 -96 -144 -171 -132 -185 6 -7 14 -13 19 -13 8 0 148
189 168 228 20 37 -3 25 -55 -30z"/>
<path d="M3412 2398 c-28 -45 -72 -155 -72 -180 0 -39 20 -14 60 77 46 106 53
170 12 103z"/>
<path d="M2050 2410 c0 -5 5 -10 10 -10 6 0 10 5 10 10 0 6 -4 10 -10 10 -5 0
-10 -4 -10 -10z"/>
<path d="M2158 2373 c-41 -28 -47 -40 -22 -50 10 -4 26 6 44 28 47 55 38 64
-22 22z"/>
<path d="M6933 2371 c-47 -45 -35 -164 26 -249 28 -38 30 -45 24 -105 -9 -99
24 -148 116 -170 61 -14 78 -44 43 -79 -25 -25 -42 -16 -42 23 0 26 -4 29 -30
29 -51 0 -67 -60 -27 -98 36 -34 100 -30 138 7 30 31 36 61 20 105 -8 18 -6
28 6 37 13 11 19 9 40 -16 45 -56 83 -118 83 -137 0 -10 3 -18 6 -18 14 0 44
22 44 33 0 11 -76 124 -111 165 -8 10 -8 25 1 57 17 60 -5 106 -67 136 -42 20
-46 21 -85 6 -37 -15 -39 -15 -34 0 41 105 17 206 -62 261 -44 31 -66 34 -89
13z m80 -89 c21 -23 31 -73 23 -107 -8 -33 -23 -24 -47 29 -34 74 -18 125 24
78z m184 -264 c13 -13 23 -33 23 -50 0 -34 -13 -36 -28 -4 -6 14 -23 32 -36
42 -14 9 -23 20 -20 25 9 16 37 10 61 -13z m-111 -60 c10 -24 20 -46 22 -51 2
-4 -4 -4 -13 -1 -18 7 -45 54 -45 79 0 28 18 15 36 -27z m70 -22 c21 -16 19
-22 -11 -28 -14 -2 -21 3 -23 20 -4 25 6 28 34 8z"/>
<path d="M7658 2273 c-19 -5 -24 -28 -9 -37 5 -3 48 -8 96 -10 75 -3 88 -6
102 -25 41 -60 61 -76 75 -63 11 11 7 19 -24 47 -20 19 -34 36 -30 38 4 2 43
5 86 6 78 3 111 13 120 38 4 10 -37 13 -197 12 -111 -1 -210 -3 -219 -6z"/>
<path d="M2361 2178 c-28 -32 -32 -41 -20 -49 8 -5 17 -9 20 -9 14 0 60 72 55
85 -8 22 -17 17 -55 -27z"/>
<path d="M7720 2122 c0 -4 18 -29 39 -54 32 -39 41 -45 50 -34 9 11 5 21 -19
47 -16 18 -30 37 -30 41 0 5 -9 8 -20 8 -11 0 -20 -3 -20 -8z"/>
<path d="M7525 2113 c-56 -11 -94 -58 -81 -101 9 -27 46 -59 77 -67 38 -9 92
40 92 83 0 48 -46 93 -88 85z"/>
<path d="M3404 2069 c-17 -25 -24 -43 -17 -47 5 -4 12 -14 15 -22 3 -9 13 4
26 34 38 84 24 104 -24 35z"/>
<path d="M2451 2057 c-9 -11 -8 -17 5 -28 13 -11 17 -10 25 2 17 28 -9 51 -30
26z"/>
<path d="M7672 1973 c2 -9 9 -18 16 -21 18 -6 15 25 -4 32 -11 4 -14 1 -12
-11z"/>
<path d="M2562 1953 c5 -25 28 -28 28 -4 0 12 -6 21 -16 21 -9 0 -14 -7 -12
-17z"/>
<path d="M7400 1882 c0 -26 62 -104 73 -93 6 6 -5 29 -28 60 -20 28 -39 51
-41 51 -2 0 -4 -8 -4 -18z"/>
<path d="M2680 1875 c-7 -9 -10 -18 -7 -21 10 -11 37 5 37 21 0 19 -14 19 -30
0z"/>
<path d="M7580 1864 c0 -8 5 -12 10 -9 6 3 10 10 10 16 0 5 -4 9 -10 9 -5 0
-10 -7 -10 -16z"/>
<path d="M2816 1824 c-22 -27 -25 -38 -16 -47 12 -13 28 3 56 56 22 41 -4 35
-40 -9z"/>
<path d="M2895 1730 c-8 -13 4 -32 16 -25 12 8 12 35 0 35 -6 0 -13 -4 -16
-10z"/>
<path d="M3376 1695 c-41 -69 -86 -168 -86 -187 0 -10 6 -18 13 -18 14 0 114
236 105 246 -3 3 -18 -16 -32 -41z"/>
<path d="M6910 1719 c0 -26 74 -179 86 -179 23 0 16 29 -28 111 -40 73 -58 95
-58 68z"/>
<path d="M3050 1616 c0 -2 7 -6 15 -10 8 -3 15 -1 15 4 0 6 -7 10 -15 10 -8 0
-15 -2 -15 -4z"/>
<path d="M7082 1593 c2 -9 9 -18 16 -21 18 -6 15 25 -4 32 -11 4 -14 1 -12
-11z"/>
<path d="M3187 1582 c-13 -14 -14 -21 -5 -30 21 -21 38 -13 38 18 0 34 -10 38
-33 12z"/>
<path d="M2220 8815 c0 -6 14 -28 30 -49 17 -22 30 -47 30 -55 -1 -16 -29 -72
-30 -58 0 4 -14 0 -31 -8 -29 -16 -37 -44 -13 -52 8 -3 190 132 232 172 11 10
-12 45 -29 45 -20 0 -31 -17 -33 -53 -1 -14 -10 -23 -31 -28 -27 -8 -34 -4
-77 43 -26 29 -48 48 -48 43z"/>
<path d="M8257 8713 c-20 -21 -72 -60 -116 -88 -45 -27 -81 -52 -81 -55 0 -3
56 -56 124 -118 557 -507 1008 -1190 1239 -1872 74 -218 156 -574 181 -785 3
-22 10 -74 15 -115 5 -41 13 -133 16 -205 4 -71 11 -145 15 -162 5 -18 5 -33
2 -33 -4 0 -8 -96 -9 -213 -5 -471 -53 -823 -167 -1220 -162 -565 -506 -1166
-949 -1659 -91 -100 -102 -128 -53 -128 29 0 35 7 38 49 5 62 80 54 159 -19
64 -58 89 -66 38 -12 -50 53 -99 118 -99 132 0 6 12 27 26 45 l26 34 38 -19
c21 -11 66 -42 99 -70 82 -68 78 -47 -5 26 -83 73 -99 102 -77 135 26 38 34
39 78 13 57 -33 62 -30 26 13 -17 21 -31 45 -31 54 0 23 43 59 71 59 41 0 128
-30 214 -72 l80 -40 -81 83 c-83 86 -150 179 -136 188 4 3 18 20 30 38 l23 32
42 -19 c23 -10 44 -17 46 -14 3 2 -10 20 -28 38 l-33 34 28 35 c24 31 32 35
63 30 57 -8 130 -30 210 -63 41 -16 76 -29 78 -26 2 2 -36 35 -84 74 -49 38
-106 88 -127 110 -38 40 -39 42 -26 74 21 52 30 60 62 53 30 -7 39 8 12 19
-21 8 -11 73 17 101 18 18 24 18 130 7 61 -7 136 -21 165 -32 30 -10 54 -15
54 -12 0 4 -45 36 -99 70 -54 35 -116 81 -136 102 l-37 38 23 41 c26 46 26 46
93 26 27 -8 52 -13 54 -10 6 6 10 4 -53 35 -27 14 -51 33 -53 43 -2 10 7 34
20 53 l23 35 155 -4 c85 -1 163 -7 173 -11 9 -5 17 -4 17 0 0 5 -48 32 -108
61 -59 28 -126 67 -149 87 l-41 36 15 39 c18 47 28 52 79 41 87 -18 105 -20
99 -10 -3 6 -12 10 -20 10 -8 0 -39 9 -70 21 -61 23 -68 39 -41 103 14 33 15
34 92 41 44 4 120 7 169 7 89 0 90 0 55 15 -98 43 -240 116 -253 131 -11 12
-13 28 -8 57 6 39 8 40 49 43 51 4 54 14 6 31 l-36 13 7 51 c4 29 10 55 14 58
12 12 187 42 259 44 84 3 99 10 45 20 -63 11 -216 63 -250 85 -28 17 -33 26
-33 57 0 52 9 62 61 72 24 5 34 9 23 10 -68 3 -100 92 -46 129 37 26 133 51
225 58 42 4 77 10 77 14 0 5 -29 13 -65 19 -81 14 -191 48 -222 68 -62 41 -27
128 50 125 32 -1 8 15 -31 22 -36 5 -40 9 -45 42 -9 52 6 78 55 101 47 23 161
58 221 68 52 10 46 25 -10 25 -54 0 -222 34 -253 50 -16 8 -20 21 -20 60 0 48
1 49 38 59 20 6 47 11 60 11 13 0 20 4 17 10 -3 6 -32 10 -64 10 l-59 0 -3 33
c-8 66 -3 72 89 115 48 22 121 50 162 61 l75 20 -80 1 c-44 1 -125 9 -180 18
-87 15 -100 20 -101 37 0 11 -3 35 -7 53 -6 31 -4 34 31 50 l37 17 -36 3 c-34
3 -37 6 -49 50 -6 26 -14 53 -16 59 -7 25 100 90 216 132 36 13 69 28 75 33 5
4 -32 8 -84 8 -109 0 -227 18 -242 36 -6 7 -15 29 -19 48 -9 41 2 54 65 81 48
21 34 29 -25 16 -23 -5 -48 -7 -54 -5 -7 3 -19 27 -27 54 l-16 50 46 36 c25
20 90 57 143 82 54 26 98 50 98 53 0 3 -24 2 -53 -2 -29 -3 -103 -7 -165 -8
l-112 -2 -20 33 c-28 46 -26 54 23 85 23 15 44 28 46 30 2 2 2 5 -1 8 -3 3
-24 -2 -48 -10 -23 -8 -46 -15 -50 -15 -5 0 -18 20 -30 45 l-22 46 38 35 c22
19 81 62 132 96 51 33 90 63 88 65 -2 2 -28 -3 -58 -12 -29 -9 -101 -19 -160
-22 l-106 -6 -20 39 -20 39 39 29 c45 34 44 43 -2 27 -47 -16 -54 -14 -75 24
-10 19 -22 35 -26 35 -15 0 -8 22 19 56 14 19 68 66 119 105 51 38 96 74 99
80 4 5 -16 0 -43 -10 -63 -25 -188 -51 -246 -51 -37 0 -48 5 -70 31 -30 35
-26 51 25 93 41 35 32 43 -20 17 -54 -28 -62 -27 -90 14 -22 32 -23 38 -10 63
14 28 177 192 191 192 4 0 8 4 8 10 0 5 -31 -4 -70 -21 -38 -16 -103 -34 -145
-41 -73 -11 -76 -11 -100 12 -14 13 -25 29 -25 37 0 7 -5 13 -11 13 -6 0 3 16
21 36 38 44 34 52 -11 25 -19 -12 -40 -21 -48 -21 -20 0 -51 39 -51 65 0 22
55 105 71 105 5 0 9 4 9 9 0 5 -32 -7 -71 -27 l-71 -36 -19 24 c-10 14 -19 35
-19 46 0 26 62 119 104 156 17 15 25 27 18 28 -7 0 -38 -27 -69 -61 -52 -56
-98 -89 -123 -89 -5 0 -10 18 -10 40 0 22 -4 40 -10 40 -5 0 -10 7 -10 15 0
14 -17 20 -47 16 -6 -1 -14 7 -17 16 -13 42 29 125 136 265 32 43 56 78 53 78
-4 0 -43 -29 -88 -64 -131 -102 -228 -142 -239 -98 -3 10 -33 31 -67 47 -33
16 -61 34 -61 41 0 28 27 85 76 162 30 45 50 82 46 82 -4 0 -24 -17 -45 -37z"/>
<path d="M1960 8735 c0 -3 17 -32 39 -63 21 -31 47 -80 57 -108 17 -49 17 -53
1 -77 -40 -61 23 -31 87 41 44 49 42 56 -33 99 -25 15 -70 46 -98 71 -29 24
-53 41 -53 37z"/>
<path d="M1626 8578 c4 -7 21 -31 39 -53 127 -160 182 -295 121 -295 -14 0
-66 -52 -66 -66 0 -5 8 -14 19 -21 16 -10 23 -7 46 17 17 17 25 35 22 44 -4 9
-2 16 3 16 13 0 225 201 225 214 0 17 -48 7 -67 -15 -9 -10 -25 -19 -36 -19
-35 0 -157 69 -230 130 -72 60 -90 71 -76 48z"/>
<path d="M1540 8253 c0 -5 19 -21 41 -38 45 -33 63 -62 73 -118 9 -50 0 -77
-27 -77 -30 0 -118 47 -163 87 -70 62 -59 33 12 -35 81 -75 94 -101 69 -138
-21 -33 -41 -40 -71 -24 -33 18 -39 7 -18 -29 18 -31 18 -31 -11 -62 -29 -30
-32 -31 -102 -27 -58 4 -86 12 -152 45 -45 22 -81 38 -81 35 0 -2 50 -56 110
-118 103 -107 128 -144 97 -144 -8 0 -20 -11 -27 -25 -15 -29 -30 -31 -70 -10
-77 40 -86 37 -32 -10 48 -43 66 -75 41 -75 -5 0 -15 -13 -20 -29 l-10 -29
-87 5 c-59 3 -115 14 -172 34 -46 15 -86 27 -88 25 -1 -2 30 -28 70 -57 81
-59 198 -167 198 -182 0 -5 -9 -7 -20 -4 -15 4 -22 -2 -32 -29 -6 -19 -16 -34
-20 -34 -4 0 -31 9 -60 20 -87 33 -92 20 -7 -23 52 -26 58 -45 29 -92 l-22
-35 -76 0 c-49 0 -109 9 -165 23 -48 13 -87 21 -87 18 1 -3 42 -34 93 -69 136
-93 170 -125 162 -154 -16 -54 -32 -66 -77 -62 l-43 5 38 -21 c42 -23 43 -30
19 -80 l-17 -35 -90 3 c-50 1 -126 5 -170 7 l-80 5 75 -38 c81 -41 188 -110
208 -135 10 -11 9 -20 -3 -43 -8 -16 -15 -37 -15 -47 0 -13 -5 -17 -17 -13
-38 11 -108 25 -111 21 -2 -2 23 -17 56 -34 l59 -30 -8 -43 c-4 -24 -8 -46 -9
-51 -1 -23 -110 -42 -243 -42 -59 0 -107 -3 -107 -6 0 -3 19 -11 43 -18 50
-15 193 -84 225 -109 25 -19 28 -38 16 -104 -6 -36 -8 -38 -45 -38 -47 0 -60
-16 -20 -25 37 -8 54 -28 46 -55 -3 -11 -8 -32 -9 -48 -3 -25 -8 -28 -57 -34
-30 -4 -109 -11 -177 -14 -67 -4 -120 -9 -117 -12 3 -3 36 -13 73 -23 72 -18
143 -48 204 -86 34 -21 37 -26 36 -68 -1 -48 -6 -53 -65 -57 -35 -2 -46 -18
-13 -18 10 0 30 -5 44 -11 20 -10 24 -19 24 -53 0 -24 -3 -48 -7 -55 -11 -17
-140 -47 -239 -56 -46 -4 -81 -10 -78 -13 3 -3 45 -15 93 -28 49 -12 114 -32
147 -45 49 -20 61 -30 73 -61 13 -34 13 -39 -4 -62 -10 -14 -26 -26 -35 -26
-25 0 -23 -30 2 -30 25 0 50 -47 43 -82 -7 -37 -60 -62 -205 -95 -65 -15 -115
-29 -113 -32 3 -2 28 -6 55 -7 27 -1 93 -12 146 -25 96 -22 96 -22 115 -63 29
-63 25 -73 -29 -89 -37 -12 -41 -15 -20 -16 15 -1 39 -11 54 -24 23 -21 26
-28 20 -61 -6 -33 -13 -39 -64 -62 -75 -34 -191 -74 -214 -74 -10 0 -18 -4
-18 -10 0 -6 31 -10 73 -10 39 0 107 -7 150 -15 43 -8 80 -15 83 -15 9 0 34
-61 34 -85 0 -20 -9 -30 -46 -48 l-47 -22 54 -5 c48 -4 54 -8 58 -30 1 -14 8
-28 15 -32 8 -6 8 -8 -1 -8 -7 0 -10 -6 -7 -14 6 -16 -83 -69 -203 -122 -41
-17 -77 -35 -81 -38 -3 -4 34 -6 83 -5 50 1 124 -1 166 -5 l75 -8 17 -48 c9
-26 17 -50 17 -52 0 -3 -18 -13 -40 -23 -51 -23 -51 -35 -1 -28 33 5 41 2 54
-18 34 -54 32 -65 -25 -107 -29 -22 -93 -61 -143 -87 -93 -49 -126 -72 -90
-61 106 31 359 34 356 3 -3 -24 0 -38 7 -34 4 3 8 -7 9 -22 2 -24 -5 -31 -43
-50 -24 -12 -44 -25 -44 -27 0 -3 26 -2 58 2 l58 6 13 -43 13 -44 -48 -42
c-26 -24 -87 -69 -136 -100 -93 -62 -111 -82 -50 -58 64 25 154 45 233 51 71
6 78 5 88 -15 7 -11 9 -21 5 -21 -4 0 2 -10 14 -23 23 -24 19 -38 -15 -56 -34
-17 -29 -34 7 -26 35 8 54 -4 76 -47 14 -28 14 -29 -33 -76 -26 -26 -85 -78
-131 -116 -46 -38 -81 -70 -79 -72 2 -2 34 9 71 26 36 17 107 42 157 56 78 23
94 25 115 14 13 -8 22 -16 19 -18 -3 -3 2 -16 11 -29 17 -27 12 -39 -36 -80
-36 -30 -21 -36 29 -11 48 24 74 17 79 -21 2 -11 10 -21 18 -21 8 0 14 -3 14
-7 0 -16 -91 -121 -168 -193 -47 -44 -83 -80 -79 -80 4 0 49 21 99 47 51 26
121 54 155 63 l62 17 36 -37 37 -37 -33 -37 c-38 -44 -33 -55 12 -27 49 30 65
27 82 -17 14 -33 13 -40 -2 -66 -9 -15 -26 -36 -38 -46 -53 -42 -95 -82 -90
-86 2 -3 29 15 58 38 60 48 134 98 146 98 5 0 9 -14 9 -32 1 -19 10 -38 22
-48 21 -17 20 -18 -49 -90 -38 -40 -67 -75 -65 -78 3 -2 26 14 53 36 69 58
130 87 149 71 14 -12 45 -63 44 -74 -1 -21 2 -25 20 -25 16 0 18 -4 11 -17 -5
-10 -24 -49 -41 -87 -18 -38 -61 -104 -96 -147 -35 -44 -61 -79 -57 -79 3 0
38 24 77 54 73 55 153 103 217 130 l37 15 27 -39 c21 -30 31 -37 40 -30 10 8
19 4 34 -16 12 -15 21 -32 21 -39 0 -27 -26 -84 -67 -149 -24 -37 -42 -70 -40
-73 9 -9 113 111 140 162 l29 53 -78 74 c-168 159 -369 375 -485 523 -100 126
-276 382 -356 515 -156 260 -316 618 -402 898 -39 127 -111 425 -126 522 -4
25 -9 54 -11 65 -5 36 -33 239 -39 290 -14 115 -14 711 0 860 52 569 207 1131
438 1591 146 291 426 708 615 917 l44 48 -39 28 c-21 16 -60 52 -88 80 -46 48
-65 61 -65 44z"/>
<path d="M8825 8120 c-27 -30 -12 -34 15 -5 13 14 19 25 13 25 -5 0 -18 -9
-28 -20z"/>
<path d="M9146 7605 c-3 -8 -2 -15 3 -15 5 0 14 7 21 15 10 12 10 15 -3 15 -8
0 -17 -7 -21 -15z"/>
<path d="M9665 6440 c-8 -13 15 -13 35 0 12 8 11 10 -7 10 -12 0 -25 -4 -28
-10z"/>
<path d="M9840 5550 c-11 -7 -7 -10 18 -10 17 0 32 5 32 10 0 13 -30 13 -50 0z"/>
<path d="M475 5540 c3 -5 8 -10 11 -10 2 0 4 5 4 10 0 6 -5 10 -11 10 -5 0 -7
-4 -4 -10z"/>
<path d="M9865 5100 c-3 -5 3 -10 14 -10 12 0 21 5 21 10 0 6 -6 10 -14 10 -8
0 -18 -4 -21 -10z"/>
<path d="M8363 2022 c-21 -20 -50 -51 -64 -67 -14 -17 -47 -48 -72 -70 -44
-38 -59 -65 -36 -65 20 0 49 21 49 36 0 9 6 14 13 11 6 -2 22 7 34 20 12 12
29 23 37 23 44 0 164 -67 264 -148 23 -19 44 -33 46 -31 3 2 -28 47 -68 100
-39 53 -84 126 -100 162 -34 80 -48 84 -103 29z"/>
<path d="M8115 1783 c-48 -52 -55 -71 -27 -79 41 -12 149 -71 181 -99 43 -37
37 -18 -23 69 -25 36 -50 84 -56 106 -6 21 -15 42 -20 45 -5 3 -30 -16 -55
-42z"/>
<path d="M2195 1700 c-18 -20 -18 -20 14 -20 25 0 32 4 29 17 -5 25 -22 26
-43 3z"/>
<path d="M7945 1639 c-38 -22 -72 -44 -75 -49 -4 -7 -61 -45 -282 -190 -38
-24 -68 -47 -68 -51 0 -14 22 -22 29 -10 10 15 79 -35 116 -84 39 -51 44 -35
6 21 -42 64 -41 100 5 142 l36 33 41 -34 c48 -40 178 -171 190 -192 4 -8 13
-15 18 -15 6 0 -1 21 -16 46 -83 142 -125 255 -104 280 9 11 15 12 25 3 11 -9
14 -9 14 0 0 8 11 7 35 -4 42 -17 50 -8 43 51 -4 35 -4 35 28 29 33 -6 64 13
64 40 0 10 -20 25 -33 25 -1 0 -34 -18 -72 -41z"/>
<path d="M2296 1634 c-10 -27 -7 -54 8 -54 44 0 59 26 30 54 -20 20 -30 20
-38 0z"/>
<path d="M2137 1602 c-40 -44 -2 -115 51 -96 37 13 51 54 28 88 -20 31 -56 34
-79 8z"/>
<path d="M2360 1566 c0 -27 22 -40 39 -23 8 8 6 16 -6 29 -22 25 -33 23 -33
-6z"/>
<path d="M2456 1508 c-3 -13 -37 -81 -76 -152 -38 -70 -70 -131 -70 -134 0 -3
33 28 73 68 39 40 95 88 124 107 52 33 93 43 93 22 0 -5 5 -7 10 -4 6 3 10 2
10 -4 0 -5 -6 -11 -12 -14 -9 -3 -6 -10 10 -22 28 -20 29 -59 1 -104 -11 -18
-18 -35 -16 -37 2 -3 25 17 51 43 l47 47 -26 21 c-14 12 -25 32 -25 43 0 21
-59 71 -141 121 -43 26 -46 26 -53 -1z"/>
<path d="M2780 1332 c0 -6 4 -13 9 -16 5 -3 14 -34 21 -70 15 -80 1 -142 -64
-280 -25 -53 -41 -96 -37 -96 4 0 23 23 41 51 58 90 147 196 197 234 45 34 48
35 51 16 4 -28 41 -48 53 -30 11 18 11 29 0 29 -5 0 -11 -3 -14 -7 -2 -5 -2
-2 -1 4 4 14 -50 53 -151 108 -38 21 -78 45 -87 53 -11 9 -18 10 -18 4z"/>
<path d="M7466 1321 c-14 -15 -14 -20 -3 -29 19 -16 53 9 44 32 -8 21 -20 20
-41 -3z"/>
<path d="M7365 1268 c-133 -77 -317 -162 -562 -259 -57 -22 -103 -44 -103 -47
0 -4 -10 -7 -22 -8 -13 -1 -68 -16 -123 -33 -182 -59 -359 -108 -475 -130 -63
-13 -158 -32 -210 -42 -94 -20 -142 -25 -400 -49 -74 -7 -142 -14 -150 -17
-24 -7 -376 -2 -485 7 -156 13 -356 38 -405 49 -66 15 -81 14 -73 -7 3 -9 14
-25 25 -35 12 -12 18 -32 18 -63 0 -55 14 -50 29 11 12 48 30 57 72 34 17 -9
21 -7 26 10 5 20 6 20 25 -4 36 -46 51 -130 51 -287 0 -82 4 -148 8 -148 5 0
9 11 9 25 0 62 50 258 79 308 31 55 71 99 71 79 0 -7 17 -12 44 -12 47 0 56
-11 56 -72 0 -46 17 -31 24 20 3 27 9 51 11 54 3 3 26 2 53 -2 29 -5 49 -4 54
3 5 9 47 -60 71 -117 13 -31 37 -212 37 -276 0 -33 4 -60 10 -60 6 0 10 29 10
68 1 125 25 266 56 322 28 52 30 53 77 54 54 2 61 -4 72 -67 11 -57 25 -44 25
24 l0 62 55 -7 c35 -4 55 -2 55 4 0 26 22 5 56 -53 37 -63 79 -202 90 -304 12
-98 22 -54 26 115 4 122 9 179 22 212 15 43 19 46 68 58 58 13 71 5 83 -55 10
-53 25 -49 25 6 0 59 19 84 56 75 13 -3 24 -2 24 2 0 5 12 9 28 10 21 1 36
-10 64 -45 39 -48 61 -95 102 -226 l25 -80 -6 75 c-14 165 7 320 43 320 8 0
12 5 9 10 -3 6 -2 10 4 10 5 0 13 -5 16 -11 5 -7 13 -5 25 6 16 15 19 14 39
-11 12 -15 24 -38 27 -51 11 -42 24 -24 24 33 0 54 20 98 35 74 8 -13 51 -5
72 12 24 20 118 -87 177 -201 26 -51 49 -91 51 -89 2 2 -5 37 -15 78 -25 93
-27 289 -4 269 14 -11 19 -2 15 24 -1 5 3 5 9 2 6 -4 17 1 25 11 11 16 15 16
30 4 10 -8 31 -38 47 -68 17 -29 33 -51 35 -48 3 3 -1 28 -8 56 -15 60 -8 79
40 95 17 6 36 17 41 25 14 22 116 -92 181 -202 29 -48 54 -87 55 -85 2 2 -12
50 -31 107 -50 156 -58 270 -20 270 16 0 75 -57 75 -72 0 -5 4 -7 9 -4 4 3 6
28 3 56 -4 39 -1 51 12 56 9 3 13 11 9 18 -5 8 -3 8 8 -1 8 -6 16 -13 19 -14
10 -6 69 35 72 50 5 26 127 -99 208 -213 41 -58 78 -106 83 -106 4 0 -13 40
-37 88 -55 110 -88 207 -80 238 4 14 0 31 -7 41 -10 12 -10 15 -1 9 9 -5 12 2
12 28 0 19 -4 37 -8 40 -4 2 -39 -14 -77 -36z"/>
<path d="M3102 1098 c-6 -29 -14 -61 -17 -70 -13 -32 13 -19 34 18 16 27 26
34 39 29 31 -12 37 -10 34 9 -2 10 1 15 6 12 33 -20 18 -162 -34 -304 -30 -83
-26 -105 7 -40 35 70 98 157 155 217 30 30 54 58 54 61 0 3 -38 20 -83 39 -45
18 -103 44 -129 57 -26 13 -49 24 -51 24 -3 0 -9 -24 -15 -52z"/>
<path d="M3387 1006 c-8 -19 42 -53 53 -36 16 25 32 -46 22 -99 -11 -62 -1
-66 22 -8 9 24 27 54 40 66 20 19 24 20 30 6 3 -9 10 -14 16 -10 15 9 48 -30
59 -72 15 -52 13 -165 -3 -240 -7 -35 -10 -63 -6 -63 4 0 11 12 15 28 14 57
75 169 114 207 22 23 44 53 50 67 9 25 8 28 -32 42 -23 9 -85 29 -137 45 -52
16 -121 41 -153 55 -66 30 -83 32 -90 12z"/>
<path d="M3816 865 c-3 -8 -3 -22 0 -30 7 -18 40 -20 47 -2 3 7 6 5 6 -5 1
-23 27 -23 35 -2 7 19 4 24 -16 28 -12 3 -46 15 -59 22 -4 2 -9 -3 -13 -11z"/>
<path d="M3923 810 c4 -18 7 -56 7 -84 l0 -51 24 51 c29 62 38 69 68 52 13 -7
32 -13 43 -13 40 0 55 -175 30 -345 -3 -19 12 10 33 65 49 127 61 150 109 204
35 40 41 43 61 32 25 -13 42 -7 42 14 0 17 -32 26 -220 66 -226 48 -204 47
-197 9z"/>
</g>
</svg>
